<svg xmlns="http://www.w3.org/2000/svg" version="1.1" xmlns:xlink="http://www.w3.org/1999/xlink" xmlns:svgjs="http://svgjs.dev/svgjs" width="1000" height="555" viewBox="0 0 1000 555"><g transform="matrix(1,0,0,1,-0.6060606060606801,-0.5107587334014738)"><svg viewBox="0 0 396 220" data-background-color="#ffffff" preserveAspectRatio="xMidYMid meet" height="555" width="1000" xmlns="http://www.w3.org/2000/svg" xmlns:xlink="http://www.w3.org/1999/xlink"><g id="tight-bounds" transform="matrix(1,0,0,1,0.24000000000003752,0.202462921348328)"><svg viewBox="0 0 395.5199999999999 219.59507415730334" height="219.59507415730334" width="395.5199999999999"><g><svg viewBox="0 0 395.5199999999999 219.59507415730334" height="219.59507415730334" width="395.5199999999999"><g><svg viewBox="0 0 395.5199999999999 219.59507415730334" height="219.59507415730334" width="395.5199999999999"><g><svg viewBox="0 0 395.5199999999999 219.59507415730334" height="219.59507415730334" width="395.5199999999999"><g><svg viewBox="0 0 395.5199999999999 219.59507415730334" height="219.59507415730334" width="395.5199999999999"><g><svg viewBox="0 0 395.5199999999999 219.59507415730334" height="219.59507415730334" width="395.5199999999999"><g transform="matrix(1,0,0,1,0,0)"><svg width="395.5199999999999" viewBox="2.2700000000000005 -40.43 78.22000000000001 40.43" height="219.59507415730334" data-palette-color="#7fdbff"><svg></svg><g class="undefined-text-0" data-fill-palette-color="primary" id="text-0"><path d="M14.58-40.43v40.43h-1.76v-40.43zM11.06-40.43v40.43h-1.76v-40.43zM7.54-40.43v40.43h-1.75v-40.43zM4.03-40.43v40.43h-1.76v-40.43zM37.74 0l-10.32-20.21 10.32-20.22h1.96l-10.33 20.22 10.33 20.21zM33.81 0l-10.32-20.21 10.32-20.22h1.96l-10.33 20.22 10.33 20.21zM29.88 0l-10.32-20.21 10.32-20.22h1.96l-10.33 20.22 10.33 20.21zM25.95 0l-10.35-20.21 10.35-20.22h1.96l-10.36 20.22 10.36 20.21zM55.37-40.43v40.43h-1.76v-40.43zM51.86-40.43v40.43h-1.76v-40.43zM48.34-40.43v40.43h-1.76v-40.43zM44.82-40.43v40.43h-1.75v-40.43zM78.54 0l-10.33-20.21 10.33-20.22h1.95l-10.32 20.22 10.32 20.21zM74.61 0l-10.33-20.21 10.33-20.22h1.95l-10.32 20.22 10.32 20.21zM70.68 0l-10.33-20.21 10.33-20.22h1.95l-10.33 20.22 10.33 20.21zM66.75 0l-10.35-20.21 10.35-20.22h1.95l-10.35 20.22 10.35 20.21z" fill="#7fdbff" fill-rule="nonzero" stroke="none" stroke-width="1" stroke-linecap="butt" stroke-linejoin="miter" stroke-miterlimit="10" stroke-dasharray="" stroke-dashoffset="0" font-family="none" font-weight="none" font-size="none" text-anchor="none" style="mix-blend-mode: normal" data-fill-palette-color="primary" opacity="1"></path></g></svg></g></svg></g></svg></g></svg></g></svg></g></svg></g><defs></defs></svg><rect width="395.5199999999999" height="219.59507415730334" fill="none" stroke="none" visibility="hidden"></rect></g></svg></g></svg>