<svg xmlns="http://www.w3.org/2000/svg" version="1.1" xmlns:xlink="http://www.w3.org/1999/xlink" xmlns:svgjs="http://svgjs.dev/svgjs" width="1000" height="323" viewBox="0 0 1000 323"><g transform="matrix(1,0,0,1,-0.6060606060606233,-0.3413395171875777)"><svg viewBox="0 0 396 128" data-background-color="#000000" preserveAspectRatio="xMidYMid meet" height="323" width="1000" xmlns="http://www.w3.org/2000/svg" xmlns:xlink="http://www.w3.org/1999/xlink"><g id="tight-bounds" transform="matrix(1,0,0,1,0.2400000000000091,0.13526767244584903)"><svg viewBox="0 0 395.52 127.72946465510829" height="127.72946465510829" width="395.52"><g><svg viewBox="0 0 395.52 127.72946465510829" height="127.72946465510829" width="395.52"><g><svg viewBox="0 0 395.52 127.72946465510829" height="127.72946465510829" width="395.52"><g><svg viewBox="0 0 395.52 127.72946465510829" height="127.72946465510829" width="395.52"><g><svg viewBox="0 0 395.52 127.72946465510829" height="127.72946465510829" width="395.52"><g><svg viewBox="0 0 395.52 91.25172447057412" height="91.25172447057412" width="395.52"><g transform="matrix(1,0,0,1,0,0)"><svg width="395.52" viewBox="2.2700000000000005 -40.43 406.96000000000004 89.14" height="91.25172447057412" data-palette-color="#7fdbff"><svg></svg><svg></svg><g class="undefined-text-0" data-fill-palette-color="primary" id="text-0"><path d="M14.58-40.43v40.43h-1.76v-40.43zM11.06-40.43v40.43h-1.76v-40.43zM7.54-40.43v40.43h-1.75v-40.43zM4.03-40.43v40.43h-1.76v-40.43zM37.74 0l-10.32-20.21 10.32-20.22h1.96l-10.33 20.22 10.33 20.21zM33.81 0l-10.32-20.21 10.32-20.22h1.96l-10.33 20.22 10.33 20.21zM29.88 0l-10.32-20.21 10.32-20.22h1.96l-10.33 20.22 10.33 20.21zM25.95 0l-10.35-20.21 10.35-20.22h1.96l-10.36 20.22 10.36 20.21zM51.86-40.43v40.43h-1.76v-40.43zM48.34-40.43v40.43h-1.76v-40.43zM44.82-40.43v40.43h-1.75v-40.43zM55.37-15.82v7.03h18.7v1.76h-18.7v1.76h18.7v1.75h-18.7v1.76h18.7v1.76h-20.46v-40.43h20.46v1.76h-18.7v1.76h18.7v1.75h-18.7v1.76h18.7v1.76h-18.7v7.03h9.6v1.76h-9.6v1.76h9.6v1.75h-9.6v1.76h9.6v1.76zM93.02 0l-15.99-40.43h1.9l15.04 38.06 15.04-38.06h1.88l-15.97 40.43zM82.69-40.43l12.5 31.64-1 2.25-13.38-33.89zM86.5-40.43l10.57 26.83-0.93 2.42-11.55-29.25zM90.26-40.43l8.67 21.95-0.93 2.46-9.62-24.41zM104.37 0l15.97-40.43h1.9l-15.99 40.43zM100.59 0l15.99-40.43h1.88l-15.99 40.43zM96.8 0l15.97-40.43h1.9l-15.99 40.43zM135.99 0v-40.43h1.75v40.43zM132.47 0v-40.43h1.76v40.43zM128.96 0v-40.43h1.75v40.43zM125.44 0v-40.43h1.76v40.43zM171.09-40.43v20.97l-1.75-2.9v-18.07zM174.61-40.43v26.73l-1.76-2.95v-23.78zM178.13-40.43v32.57l-1.76-2.98v-29.59zM152.93 0v-20.97l1.76 2.9v18.07zM149.41 0v-26.73l1.76 2.95v23.78zM145.9 0v-32.57l1.76 2.98v29.59zM171.36 0l-24.85-40.43h2.05l24.85 40.43zM175.46 0l-24.8-40.43h2.07l24.83 40.43zM179.57 0l-24.78-40.43h2.05l23.04 37.57v-37.57h1.76v40.43c0 0-0.69 0-2.07 0zM167.24 0l-23.1-37.57v37.57h-1.76v-40.43c0 0 0.7 0 2.1 0v0l24.78 40.43z" fill="#7fdbff" fill-rule="nonzero" stroke="none" stroke-width="1" stroke-linecap="butt" stroke-linejoin="miter" stroke-miterlimit="10" stroke-dasharray="" stroke-dashoffset="0" font-family="none" font-weight="none" font-size="none" text-anchor="none" style="mix-blend-mode: normal" data-fill-palette-color="primary" opacity="1"></path><path d="M14.58 6.52v40.43h-1.76v-40.43zM11.06 6.52v40.43h-1.76v-40.43zM7.54 6.52v40.43h-1.75v-40.43zM4.03 6.52v40.43h-1.76v-40.43zM37.74 46.95l-10.32-20.21 10.32-20.22h1.96l-10.33 20.22 10.33 20.21zM33.81 46.95l-10.32-20.21 10.32-20.22h1.96l-10.33 20.22 10.33 20.21zM29.88 46.95l-10.32-20.21 10.32-20.22h1.96l-10.33 20.22 10.33 20.21zM25.95 46.95l-10.35-20.21 10.35-20.22h1.96l-10.36 20.22 10.36 20.21zM81.74 46.95v-40.43h1.76v40.43zM43.07 46.95v-40.43h1.75v40.43zM78.22 46.95v-40.43h1.76v40.43zM74.71 46.95v-40.43h1.75v40.43zM71.19 22.32v-15.8h1.76v40.43h-1.76v-15.84h-15.82v15.84h-1.76v-40.43h1.76v15.8zM50.1 46.95v-40.43h1.76v40.43zM46.58 46.95v-40.43h1.76v40.43zM55.37 29.35h15.82v-1.76h-15.82zM55.37 25.83h15.82v-1.76h-15.82zM113.01 35.08h-7.42l0.71-1.75h6zM114.43 38.6h-10.21l0.69-1.76h8.76zM115.8 42.12h-12.94l0.68-1.76h11.52zM103.61 8.89l-15.04 38.06h-1.9l15.99-40.43h1.91l15.96 40.43h-1.88zM90.45 46.95l13.38-33.89 1 2.25-12.5 31.64zM94.24 46.95l11.55-29.25 0.92 2.42-10.57 26.83zM98.02 46.95l9.62-24.41 0.93 2.46-8.67 21.95zM115.89 6.52l15.99 40.43h-1.9l-15.97-40.43zM110.23 6.52h1.88l15.99 40.43h-1.88zM106.45 6.52h1.88l15.99 40.43h-1.91zM162.92 20.34v0l-1.45 0.95c-0.873-1.3-2.017-2.33-3.43-3.09-1.407-0.753-2.93-1.13-4.57-1.13v0c-2.673 0-4.953 0.943-6.84 2.83-1.887 1.887-2.83 4.167-2.83 6.84 0 2.667 0.943 4.943 2.83 6.83 1.887 1.887 4.167 2.83 6.84 2.83v0c1.64 0 3.163-0.38 4.57-1.14 1.413-0.767 2.557-1.8 3.43-3.1v0l1.42 1.02c-1.04 1.533-2.39 2.747-4.05 3.64-1.66 0.893-3.45 1.34-5.37 1.34v0c-1.547 0-3.023-0.3-4.43-0.9-1.413-0.607-2.63-1.42-3.65-2.44-1.027-1.027-1.843-2.243-2.45-3.65-0.6-1.413-0.9-2.89-0.9-4.43 0-1.547 0.3-3.027 0.9-4.44 0.607-1.407 1.423-2.623 2.45-3.65 1.02-1.02 2.237-1.833 3.65-2.44 1.407-0.6 2.883-0.9 4.43-0.9v0c1.933 0 3.73 0.45 5.39 1.35 1.66 0.907 3.013 2.133 4.06 3.68zM165.82 18.34v0l-1.46 0.95c-1.207-1.76-2.767-3.157-4.68-4.19-1.913-1.033-3.983-1.55-6.21-1.55v0c-2.393 0-4.6 0.59-6.62 1.77-2.02 1.18-3.62 2.78-4.8 4.8-1.18 2.02-1.77 4.227-1.77 6.62 0 2.387 0.59 4.59 1.77 6.61 1.18 2.02 2.78 3.62 4.8 4.8 2.02 1.18 4.227 1.77 6.62 1.77v0c2.227 0 4.3-0.52 6.22-1.56 1.92-1.047 3.483-2.457 4.69-4.23v0l1.44 1c-1.367 2.02-3.137 3.617-5.31 4.79-2.173 1.173-4.52 1.76-7.04 1.76v0c-2.707 0-5.207-0.67-7.5-2.01-2.293-1.333-4.107-3.147-5.44-5.44-1.333-2.293-2-4.79-2-7.49 0-2.707 0.667-5.207 2-7.5 1.333-2.293 3.147-4.107 5.44-5.44 2.293-1.34 4.793-2.01 7.5-2.01v0c2.52 0 4.867 0.587 7.04 1.76 2.173 1.173 3.943 2.77 5.31 4.79zM168.75 16.38v0l-1.46 0.96c-1.533-2.247-3.517-4.027-5.95-5.34-2.433-1.307-5.057-1.96-7.87-1.96v0c-2.267 0-4.433 0.437-6.5 1.31-2.067 0.88-3.843 2.067-5.33 3.56-1.493 1.487-2.677 3.263-3.55 5.33-0.88 2.067-1.32 4.233-1.32 6.5 0 2.26 0.44 4.423 1.32 6.49 0.873 2.067 2.057 3.843 3.55 5.33 1.487 1.493 3.263 2.68 5.33 3.56 2.067 0.873 4.233 1.31 6.5 1.31v0c2.827 0 5.453-0.657 7.88-1.97 2.427-1.32 4.407-3.103 5.94-5.35v0l1.41 1.05c-1.693 2.473-3.877 4.43-6.55 5.87-2.68 1.44-5.573 2.16-8.68 2.16v0c-3.34 0-6.427-0.827-9.26-2.48-2.827-1.647-5.067-3.887-6.72-6.72-1.653-2.833-2.48-5.917-2.48-9.25 0-3.34 0.827-6.427 2.48-9.26 1.653-2.833 3.893-5.073 6.72-6.72 2.833-1.653 5.92-2.48 9.26-2.48v0c3.12 0 6.023 0.727 8.71 2.18 2.687 1.46 4.877 3.433 6.57 5.92zM171.63 14.38v0l-1.46 0.95c-1.86-2.713-4.257-4.86-7.19-6.44-2.94-1.58-6.11-2.37-9.51-2.37v0c-2.733 0-5.35 0.533-7.85 1.6-2.5 1.067-4.653 2.503-6.46 4.31-1.807 1.807-3.243 3.96-4.31 6.46-1.067 2.493-1.6 5.11-1.6 7.85 0 2.733 0.533 5.347 1.6 7.84 1.067 2.5 2.503 4.653 4.31 6.46 1.807 1.807 3.96 3.243 6.46 4.31 2.5 1.067 5.117 1.6 7.85 1.6v0c3.4 0 6.573-0.797 9.52-2.39 2.947-1.6 5.347-3.757 7.2-6.47v0l1.42 1.07c-2.02 2.933-4.627 5.257-7.82 6.97-3.187 1.72-6.627 2.58-10.32 2.58v0c-2.98 0-5.827-0.583-8.54-1.75-2.707-1.16-5.04-2.723-7-4.69-1.96-1.96-3.523-4.293-4.69-7-1.167-2.713-1.75-5.557-1.75-8.53 0-2.98 0.583-5.827 1.75-8.54 1.167-2.707 2.73-5.04 4.69-7 1.96-1.967 4.293-3.53 7-4.69 2.713-1.167 5.56-1.75 8.54-1.75v0c3.707 0 7.157 0.863 10.35 2.59 3.187 1.727 5.79 4.07 7.81 7.03zM213.67 46.95v-40.43h1.76v40.43zM175 46.95v-40.43h1.76v40.43zM210.16 46.95v-40.43h1.75v40.43zM206.64 46.95v-40.43h1.76v40.43zM203.13 22.32v-15.8h1.75v40.43h-1.75v-15.84h-15.83v15.84h-1.75v-40.43h1.75v15.8zM182.03 46.95v-40.43h1.76v40.43zM178.52 46.95v-40.43h1.75v40.43zM187.3 29.35h15.83v-1.76h-15.83zM187.3 25.83h15.83v-1.76h-15.83zM244.95 35.08h-7.43l0.71-1.75h6.01zM246.36 38.6h-10.2l0.68-1.76h8.77zM247.73 42.12h-12.94l0.68-1.76h11.53zM235.55 8.89l-15.04 38.06h-1.91l15.99-40.43h1.91l15.97 40.43h-1.88zM222.39 46.95l13.38-33.89 1 2.25-12.5 31.64zM226.17 46.95l11.55-29.25 0.93 2.42-10.57 26.83zM229.96 46.95l9.62-24.41 0.92 2.46-8.66 21.95zM247.83 6.52l15.99 40.43h-1.91l-15.96-40.43zM242.16 6.52h1.88l15.99 40.43h-1.88zM238.38 6.52h1.88l15.99 40.43h-1.9zM280.18 28.59v-1.76h10.59c1.613 0 2.977-0.52 4.09-1.56 1.113-1.04 1.67-2.52 1.67-4.44v0c0-1.42-0.583-2.693-1.75-3.82-1.173-1.133-2.51-1.7-4.01-1.7v0h-15.09v31.64h-1.75v-33.4h16.84c1.987 0 3.737 0.737 5.25 2.21 1.513 1.473 2.27 3.163 2.27 5.07v0c0 2.34-0.733 4.22-2.2 5.64-1.46 1.413-3.233 2.12-5.32 2.12v0zM280.18 32.11v-1.76h10.59c2.54 0 4.72-0.89 6.54-2.67 1.827-1.787 2.74-4.07 2.74-6.85v0c0-2.393-0.933-4.497-2.8-6.31-1.86-1.82-4.02-2.73-6.48-2.73v0h-18.6v35.16h-1.76v-36.91h20.36c1.94 0 3.76 0.497 5.46 1.49 1.7 0.987 3.053 2.317 4.06 3.99 1.013 1.667 1.52 3.437 1.52 5.31v0c0 3.207-1.087 5.887-3.26 8.04-2.173 2.16-4.767 3.24-7.78 3.24v0zM280.18 35.62v-1.76h10.59c2.28 0 4.397-0.56 6.35-1.68 1.953-1.127 3.517-2.693 4.69-4.7 1.167-2.013 1.75-4.23 1.75-6.65v0c0-2.2-0.58-4.263-1.74-6.19-1.167-1.933-2.733-3.477-4.7-4.63-1.967-1.153-4.083-1.73-6.35-1.73v0h-22.12v38.67h-1.76v-40.43h23.88c2.553 0 4.953 0.657 7.2 1.97 2.247 1.307 4.033 3.063 5.36 5.27 1.327 2.207 1.99 4.563 1.99 7.07v0c0 2.893-0.623 5.44-1.87 7.64-1.24 2.193-2.927 3.91-5.06 5.15v0l4.54 13.33h-1.86l-4.34-12.5c-0.653 0.26-1.15 0.44-1.49 0.54v0l4.08 11.96h-1.86l-3.98-11.55c-0.147 0.033-0.667 0.09-1.56 0.17v0l3.78 11.38h-1.85l-3.74-11.33h-1.58l3.56 11.33h-1.86l-3.58-11.33zM279.2 18.82v28.13h-1.76v-29.88h13.33c1.093 0 2.033 0.37 2.82 1.11 0.793 0.74 1.19 1.623 1.19 2.65v0c0 2.827-1.337 4.24-4.01 4.24v0h-10.59v-1.75h10.59c0.7 0 1.25-0.183 1.65-0.55 0.4-0.367 0.6-1.013 0.6-1.94v0c0-0.573-0.217-1.05-0.65-1.43-0.433-0.387-0.967-0.58-1.6-0.58v0zM319.63 46.95v-40.43h1.76v40.43zM316.11 46.95v-40.43h1.76v40.43zM312.6 46.95v-40.43h1.76v40.43zM309.08 46.95v-40.43h1.76v40.43zM329.88 6.52l9.67 20.09-0.88 1.93-10.54-22.02zM333.4 6.52l7.91 16.24-0.9 1.92-8.77-18.16zM336.91 6.52l6.16 12.4-0.88 1.93-7.03-14.33zM340.84 46.95v-13.62l12.72-26.81h1.76l-12.72 26.81v13.62zM344.36 46.95v-13.62l12.72-26.81h1.76l-12.72 26.81v13.62zM347.88 46.95v-13.62l12.72-26.81h1.75l-12.72 26.81v13.62zM326.37 6.52l11.84 24.95 11.84-24.95h1.76l-12.72 26.81v13.62h-1.76v-13.62l-12.72-26.81zM390.36 35.08h-7.43l0.71-1.75h6.01zM391.77 38.6h-10.2l0.68-1.76h8.77zM393.14 42.12h-12.94l0.68-1.76h11.53zM380.96 8.89l-15.04 38.06h-1.91l15.99-40.43h1.91l15.97 40.43h-1.88zM367.8 46.95l13.38-33.89 1 2.25-12.5 31.64zM371.58 46.95l11.55-29.25 0.93 2.42-10.57 26.83zM375.37 46.95l9.62-24.41 0.92 2.46-8.66 21.95zM393.24 6.52l15.99 40.43h-1.91l-15.96-40.43zM387.57 6.52h1.88l15.99 40.43h-1.88zM383.79 6.52h1.88l15.99 40.43h-1.9z" fill="#ffffff" fill-rule="nonzero" stroke="none" stroke-width="1" stroke-linecap="butt" stroke-linejoin="miter" stroke-miterlimit="10" stroke-dasharray="" stroke-dashoffset="0" font-family="none" font-weight="none" font-size="none" text-anchor="none" style="mix-blend-mode: normal" data-fill-palette-color="secondary" opacity="1"></path></g></svg></g></svg></g><g transform="matrix(1,0,0,1,0,101.33457305993161)"><svg viewBox="0 0 213.4586877109932 26.394891595176677" height="26.394891595176677" width="213.4586877109932"><g transform="matrix(1,0,0,1,0,0)"><svg width="213.4586877109932" viewBox="0.49 -56.35 625.45 77.35000000000001" height="26.394891595176677" data-palette-color="#ffffff"><path d="M52.49-2.93L52.54-2.78Q52.54-2.39 52.27-2.25 52-2.1 52.15-1.56L52.15-1.56Q51.76-1.51 51.46-1.17 51.17-0.83 50.78-0.83L50.78-0.83Q50.54-0.83 50.39-1.07L50.39-1.07Q50.29-0.73 50.02-0.59 49.76-0.44 49.46-0.34 49.17-0.24 48.88-0.1 48.58 0.05 48.49 0.34L48.49 0.34 48.24 0.34Q47.66 0.34 47.34 0.83 47.02 1.32 46.58 1.32L46.58 1.32Q46.44 1.32 46.39 1.27L46.39 1.27Q46.14 1.32 46.19 1.59 46.24 1.86 46.04 1.95L46.04 1.95 45.8 1.95Q44.53 1.95 43.21 2.49 41.89 3.03 40.55 3.71 39.21 4.39 37.82 5 36.43 5.62 35.01 5.81L35.01 5.81Q34.72 6.1 34.3 6.27 33.89 6.45 33.4 6.54 32.91 6.64 32.45 6.76 31.98 6.88 31.64 7.18L31.64 7.18Q30.42 7.28 29.2 7.62 27.98 7.96 26.78 8.28 25.59 8.59 24.34 8.81 23.1 9.03 21.83 8.94L21.83 8.94Q21.44 9.23 20.97 9.4 20.51 9.57 20.12 9.86L20.12 9.86Q18.12 9.57 16.14 9.42 14.16 9.28 12.26 8.74L12.26 8.74Q12.26 8.59 12.16 8.54 12.06 8.5 11.94 8.47 11.82 8.45 11.72 8.37 11.62 8.3 11.72 8.11L11.72 8.11Q11.28 8.25 10.94 8.25L10.94 8.25Q10.45 8.25 9.99 8.01 9.52 7.76 9.01 7.47 8.5 7.18 7.96 6.91 7.42 6.64 6.79 6.64L6.79 6.64Q6.4 6.25 6.08 5.86 5.76 5.47 5.62 4.88L5.62 4.88Q5.42 4.83 5.2 4.88 4.98 4.93 4.83 4.93L4.83 4.93Q4.54 4.93 4.54 4.74L4.54 4.74Q3.52 4 3.08 3.17 2.64 2.34 2.1 1.27L2.1 1.27Q1.95 0.93 1.73 0.71 1.51 0.49 1.42 0.2L1.42 0.2Q1.22-0.29 1.17-0.83 1.12-1.37 1.1-1.88 1.07-2.39 0.95-2.91 0.83-3.42 0.49-3.86L0.49-3.86Q0.59-5.71 0.9-7.57 1.22-9.42 1.71-11.28L1.71-11.28Q1.9-12.11 2.15-12.89 2.39-13.67 2.59-14.5L2.59-14.5Q2.64-14.79 2.76-14.92 2.88-15.04 2.98-15.09L2.98-15.09 3.17-15.23Q3.27-15.33 3.32-15.53L3.32-15.53 3.71-17.19Q4.1-18.8 4.74-20.31 5.37-21.83 6.45-23.1L6.45-23.1Q6.54-24.32 7.01-25.42 7.47-26.51 8.06-27.56 8.64-28.61 9.23-29.64 9.81-30.66 10.16-31.84L10.16-31.84 10.11-31.93Q10.11-32.13 10.33-32.15 10.55-32.18 10.64-32.18L10.64-32.18Q10.69-32.96 11.01-33.52 11.33-34.08 11.69-34.57 12.06-35.06 12.38-35.62 12.7-36.18 12.74-36.96L12.74-36.96Q13.67-37.5 14.33-38.31 14.99-39.11 15.6-39.97 16.21-40.82 16.89-41.63 17.58-42.43 18.55-42.92L18.55-42.92Q18.8-43.21 18.7-43.75L18.7-43.75Q20.21-44.87 21.83-45.75 23.44-46.63 24.85-47.8L24.85-47.8 26.61-47.8Q27.25-48.29 28.03-48.29L28.03-48.29Q28.61-48.29 29.17-48.05 29.74-47.8 30.25-47.49 30.76-47.17 31.3-46.85 31.84-46.53 32.37-46.39L32.37-46.39Q32.91-45.65 33.13-44.7 33.35-43.75 33.59-42.92L33.59-42.92Q33.15-41.6 33.06-40.21 32.96-38.82 32.71-37.45L32.71-37.45Q32.37-37.06 32.13-36.6 31.88-36.13 31.62-35.67 31.35-35.21 31.05-34.79 30.76-34.38 30.27-34.13L30.27-34.13Q29.88-32.71 29.05-31.88 28.22-31.05 27.44-29.93L27.44-29.93Q26.71-29.44 25.88-29.44L25.88-29.44Q25.2-29.44 24.66-29.76 24.12-30.08 23.68-30.59 23.24-31.1 22.97-31.71 22.71-32.32 22.56-32.91L22.56-32.91Q22.9-33.94 23.66-34.67 24.41-35.4 25.2-36.13 25.98-36.87 26.56-37.7 27.15-38.53 27.15-39.7L27.15-39.7Q27.15-39.79 27.12-39.89 27.1-39.99 27.1-40.09L27.1-40.09Q27.1-40.28 27.25-40.43 27.39-40.58 27.54-40.67L27.54-40.67 27.83-40.92Q27.98-41.06 27.98-41.26L27.98-41.26Q27.98-41.46 27.78-41.65L27.78-41.65Q25.93-41.5 24.98-41.02 24.02-40.53 23.49-39.94 22.95-39.36 22.53-38.79 22.12-38.23 21.34-37.99L21.34-37.99Q21.19-37.6 20.92-37.33 20.65-37.06 20.36-36.79 20.07-36.52 19.85-36.18 19.63-35.84 19.58-35.35L19.58-35.35 18.7-35.35Q18.51-34.91 18.14-34.5 17.77-34.08 17.41-33.69 17.04-33.3 16.77-32.84 16.5-32.37 16.6-31.84L16.6-31.84Q16.06-31.64 15.8-31.2 15.53-30.76 15.04-30.47L15.04-30.47 15.04-30.18Q15.04-29.79 14.89-29.44 14.75-29.1 14.84-28.71L14.84-28.71Q14.26-28.17 13.99-27.37 13.72-26.56 13.43-25.88L13.43-25.88Q12.74-25.54 12.5-24.95 12.26-24.37 12.26-23.58L12.26-23.58Q11.52-22.85 10.94-21.88 10.35-20.9 9.89-19.87 9.42-18.85 9.03-17.77 8.64-16.7 8.2-15.77L8.2-15.77 8.2-14.36Q7.52-13.57 7.25-12.52 6.98-11.47 6.45-10.64L6.45-10.64Q6.35-10.11 6.37-9.57 6.4-9.03 6.4-8.5L6.4-8.5Q6.4-7.91 6.3-7.28 6.2-6.64 5.96-6.1L5.96-6.1Q6.15-5.37 6.25-4.37 6.35-3.37 6.59-2.37 6.84-1.37 7.28-0.56 7.71 0.24 8.54 0.54L8.54 0.54Q8.74 1.61 9.5 2.17 10.25 2.73 11.23 3.08 12.21 3.42 13.23 3.69 14.26 3.96 15.04 4.39L15.04 4.39Q15.33 4.25 15.72 4.25L15.72 4.25Q16.11 4.25 16.43 4.35 16.75 4.44 17.14 4.54L17.14 4.54Q17.82 4.44 18.82 4.44 19.82 4.44 20.85 4.37 21.88 4.3 22.75 4.1 23.63 3.91 24.17 3.37L24.17 3.37Q24.51 3.37 24.63 3.56 24.76 3.76 25.1 3.76L25.1 3.76Q25.44 3.76 26.12 3.59 26.81 3.42 27.54 3.2 28.27 2.98 28.93 2.73 29.59 2.49 29.88 2.29L29.88 2.29Q30.03 2.34 30.18 2.34L30.18 2.34 30.52 2.34Q31.2 2.34 31.79 2.1 32.37 1.86 33.06 1.95L33.06 1.95Q35.3 0.83 37.62 0.02 39.94-0.78 42.33-1.42L42.33-1.42Q42.63-1.86 43.04-2.05 43.46-2.25 43.95-2.37 44.43-2.49 44.92-2.56 45.41-2.64 45.85-2.78L45.85-2.78Q46.14-2.93 46.36-3.15 46.58-3.37 46.92-3.52L46.92-3.52Q47.27-3.66 47.68-3.71 48.1-3.76 48.51-3.83 48.93-3.91 49.29-4.05 49.66-4.2 49.9-4.54L49.9-4.54Q50.59-4.25 51.29-3.91 52-3.56 52.49-2.93L52.49-2.93ZM76.07-28.27L76.07-28.27Q75.78-27.83 75.73-27.29 75.68-26.76 75.68-26.32L75.68-26.32Q75.68-25.73 75.71-25.17 75.73-24.61 75.73-24.07L75.73-24.07 75.73-23.34Q75.63-23 75.44-22.66 75.24-22.31 75.14-21.97L75.14-21.97Q74.46-20.17 74.46-18.36L74.46-18.36 74.46-18.26Q74.22-17.68 74-17.19 73.78-16.7 73.58-16.24 73.39-15.77 73.29-15.26 73.19-14.75 73.24-14.06L73.24-14.06Q72.56-12.35 71.43-10.96 70.31-9.57 69.24-8.11L69.24-8.11Q68.21-7.71 67.36-7.08 66.5-6.45 65.72-5.66L65.72-5.66Q64.21-5.18 62.74-4.54 61.28-3.91 60.1-2.83L60.1-2.83Q59.18-2.73 58.25-2.54 57.32-2.34 56.44-1.95L56.44-1.95 55.86-1.95Q55.42-1.95 55.22-2.15L55.22-2.15Q54.59-1.81 53.9-1.68 53.22-1.56 52.54-1.56L52.54-1.56Q51.66-1.56 50.8-1.68 49.95-1.81 49.07-1.95L49.07-1.95Q48.58-2.64 47.7-3 46.82-3.37 46.14-3.71L46.14-3.71Q44.72-5.66 44.09-7.5 43.45-9.33 42.77-11.62L42.77-11.62Q42.87-12.3 43.11-12.96 43.36-13.62 43.31-14.4L43.31-14.4Q44.19-16.94 45.63-19.02 47.07-21.09 48.92-23L48.92-23Q48.92-23.29 49.05-23.49 49.17-23.68 49.07-24.07L49.07-24.07Q49.12-24.02 49.27-24.02L49.27-24.02Q49.66-24.02 49.75-24.24 49.85-24.46 49.8-24.76L49.8-24.76Q51.56-25.88 53-27.34 54.44-28.81 56.3-29.79L56.3-29.79Q56.44-30.22 56.78-30.52 57.13-30.81 57.32-31.2L57.32-31.2Q58.88-31.64 60.15-32.52 61.42-33.4 62.84-34.08L62.84-34.08Q63.62-34.52 64.33-34.69 65.04-34.86 65.87-35.06L65.87-35.06Q66.16-35.16 66.4-35.21 66.65-35.25 66.94-35.25L66.94-35.25Q67.82-35.25 68.65-34.94 69.48-34.62 70.36-34.62L70.36-34.62Q70.6-34.62 70.77-34.64 70.94-34.67 71.14-34.72L71.14-34.72Q71.97-33.69 73.24-33.15L73.24-33.15Q73.53-32.42 73.95-31.88 74.36-31.35 74.8-30.83 75.24-30.32 75.61-29.71 75.97-29.1 76.07-28.27ZM71.19-25.73L71.19-25.73Q71.19-25.98 71.14-26.17L71.14-26.17Q70.65-26.32 70.21-26.56 69.77-26.81 69.24-26.81L69.24-26.81Q68.89-26.81 68.55-26.66L68.55-26.66Q68.5-27 68.28-27.15 68.06-27.29 67.8-27.42 67.53-27.54 67.26-27.61 66.99-27.69 66.79-27.88L66.79-27.88Q66.65-28.27 66.48-28.69 66.31-29.1 65.87-29.3L65.87-29.3Q65.43-28.86 64.84-28.59 64.26-28.32 63.64-28.08 63.03-27.83 62.47-27.49 61.91-27.15 61.52-26.66L61.52-26.66 60.64-26.66Q60.35-26.12 59.81-25.85 59.27-25.59 58.88-25.1L58.88-25.1Q58.1-24.71 57.44-24.15 56.78-23.58 56.15-22.97 55.52-22.36 54.9-21.73 54.29-21.09 53.61-20.56L53.61-20.56Q52.98-19.19 52.22-18.19 51.46-17.19 50.8-16.16 50.14-15.14 49.68-13.94 49.22-12.74 49.22-10.99L49.22-10.99 49.22-10.5Q49.22-10.25 49.27-10.01L49.27-10.01Q49.9-9.33 50.31-8.54 50.73-7.76 51.71-7.42L51.71-7.42Q52.68-7.03 53.78-7.08 54.88-7.13 55.91-6.84L55.91-6.84Q58.25-7.28 60.42-8.28 62.6-9.28 64.55-10.69L64.55-10.69Q64.84-10.94 65.23-11.21 65.62-11.47 65.87-11.77L65.87-11.77Q66.11-12.01 66.28-12.3 66.45-12.6 66.65-12.84L66.65-12.84Q67.04-13.48 67.53-14.11 68.02-14.75 68.55-15.28L68.55-15.28Q68.8-16.36 69.19-17.36 69.58-18.36 69.97-19.34 70.36-20.31 70.63-21.34 70.9-22.36 70.9-23.49L70.9-23.49Q70.9-23.73 70.87-24.02 70.85-24.32 70.8-24.56L70.8-24.56Q71.19-25.1 71.19-25.73ZM126.41-6.15L126.41-6.15Q126.17-5.37 126.26-4.59L126.26-4.59Q126.12-4.39 125.92-4.35 125.73-4.3 125.53-4.22 125.34-4.15 125.21-4.03 125.09-3.91 125.19-3.56L125.19-3.56Q123.58-3.47 122.11-2.88 120.65-2.29 119.23-1.61L119.23-1.61Q118.5-1.86 117.96-2.2 117.43-2.54 116.6-2.64L116.6-2.64Q115.77-4.3 115.06-6.13 114.35-7.96 114.35-9.81L114.35-9.81Q114.35-11.18 114.84-12.3L114.84-12.3Q114.84-13.77 115.08-15.19 115.33-16.6 115.64-17.99 115.96-19.38 116.21-20.8 116.45-22.22 116.45-23.68L116.45-23.68 116.45-24.76Q116.35-24.76 116.21-24.54 116.06-24.32 115.94-24.05 115.82-23.78 115.72-23.54 115.62-23.29 115.57-23.24L115.57-23.24Q114.74-22.61 114.28-21.66 113.81-20.7 113.28-19.87L113.28-19.87Q112.59-18.85 111.84-17.87 111.08-16.89 109.96-16.36L109.96-16.36 109.96-16.26Q109.96-16.02 109.81-15.92 109.66-15.82 109.76-15.43L109.76-15.43Q108.54-15.04 107.49-14.31 106.44-13.57 105.76-12.45L105.76-12.45Q104.78-12.21 103.93-11.79 103.07-11.38 102.19-10.89L102.19-10.89Q101.8-10.69 101.36-10.4 100.92-10.11 100.48-10.01L100.48-10.01Q100.09-9.86 99.43-9.81 98.77-9.77 98.07-9.72 97.36-9.67 96.67-9.67L96.67-9.67 95.6-9.67Q95.36-9.67 94.97-9.91 94.58-10.16 94.11-10.45 93.65-10.74 93.16-11.01 92.67-11.28 92.23-11.38L92.23-11.38Q91.84-12.65 91.13-13.65 90.42-14.65 89.64-15.67L89.64-15.67Q89.4-16.85 88.98-18.12 88.57-19.38 87.54-20.21L87.54-20.21Q87.79-20.56 87.79-21L87.79-21Q87.79-21.53 87.54-22.02 87.3-22.51 87.3-23.1L87.3-23.1Q87.3-23.49 87.35-23.68L87.35-23.68Q86.81-23.1 86.59-22.19 86.37-21.29 86.37-20.56L86.37-20.56Q86.37-19.97 86.52-19.48L86.52-19.48Q86.03-18.8 85.91-17.77 85.79-16.75 85.79-15.97L85.79-15.97Q85.79-14.99 85.93-14.06L85.93-14.06Q85.15-13.28 85.15-12.16L85.15-12.16Q85.15-11.52 85.44-11.04L85.44-11.04Q85.44-10.84 85.35-10.74 85.25-10.64 85.13-10.6 85-10.55 84.88-10.47 84.76-10.4 84.76-10.21L84.76-10.21Q84.76-9.96 84.79-9.67 84.81-9.38 84.81-9.08L84.81-9.08Q84.81-8.4 84.76-7.67 84.71-6.93 84.71-6.25L84.71-6.25Q84.71-4.83 84.98-4.22 85.25-3.61 85.66-3.32 86.08-3.03 86.57-2.73 87.06-2.44 87.54-1.61L87.54-1.61Q87.4-1.17 87.03-0.9 86.66-0.63 86.35-0.37 86.03-0.1 85.79 0.24 85.54 0.59 85.59 1.22L85.59 1.22 85.35 1.22Q84.71 1.22 84.13 1.42 83.54 1.61 82.91 1.61L82.91 1.61Q82.76 1.61 82.61 1.59 82.47 1.56 82.32 1.56L82.32 1.56 81.83 1.27Q81.59 1.12 81.34 1.12L81.34 1.12Q81.1 1.12 80.71 1.22L80.71 1.22Q80.02-0.98 79.66-3.32 79.29-5.66 79.29-7.91L79.29-7.91Q79.29-8.15 79.41-8.42 79.54-8.69 79.78-8.59L79.78-8.59 79.78-9.52Q79.78-11.04 80.05-12.48 80.32-13.92 80.32-15.48L80.32-15.48Q80.32-15.92 80.29-16.36 80.27-16.8 80.22-17.19L80.22-17.19Q80.46-18.02 80.73-18.87 81-19.73 81-20.65L81-20.65Q81-21.04 80.85-21.58L80.85-21.58Q81.25-21.88 81.44-22.34 81.64-22.8 81.73-23.36 81.83-23.93 81.88-24.46 81.93-25 81.98-25.44L81.98-25.44Q82.47-26.42 82.51-27.54 82.56-28.66 83-29.64L83-29.64Q82.95-29.83 82.95-30.32L82.95-30.32Q82.95-31.3 83.27-32.3 83.59-33.3 84.57-33.84L84.57-33.84Q85.44-33.5 86.62-33.5L86.62-33.5Q87.74-33.5 88.76-33.84L88.76-33.84Q89.06-33.74 89.3-33.62 89.55-33.5 89.81-33.37 90.08-33.25 90.38-33.18 90.67-33.11 91.06-33.15L91.06-33.15Q91.55-31.74 91.91-30.27 92.28-28.81 92.48-27.29L92.48-27.29Q92.57-26.66 92.55-25.93 92.52-25.2 92.62-24.56L92.62-24.56Q92.67-24.17 92.87-23.85 93.06-23.54 93.26-23.14 93.45-22.75 93.57-22.27 93.7-21.78 93.65-21.04L93.65-21.04Q94.18-19.78 94.84-18.63 95.5-17.48 96.28-16.36L96.28-16.36Q96.72-16.21 97.07-15.99 97.41-15.77 97.5-15.28L97.5-15.28Q97.94-15.28 98.29-15.14L98.29-15.14 99.12-14.89Q100.97-15.48 102.56-16.46 104.15-17.43 105.9-18.12L105.9-18.12Q108.05-20.21 109.61-22.78 111.18-25.34 112.74-27.88L112.74-27.88 112.74-28.96Q113.03-29.1 113.25-29.32 113.47-29.54 113.81-29.64L113.81-29.64Q113.86-30.22 114.08-30.79 114.3-31.35 114.57-31.86 114.84-32.37 115.03-32.89 115.23-33.4 115.23-33.98L115.23-33.98Q115.23-34.33 115.18-34.57L115.18-34.57Q115.91-35.3 116.94-35.3L116.94-35.3Q117.91-35.3 118.92-34.84 119.92-34.38 120.8-33.98L120.8-33.98Q121.33-32.81 121.6-31.52 121.87-30.22 121.97-28.86 122.07-27.49 122.07-26.12L122.07-26.12 122.07-22.66Q122.02-22.27 121.8-22.09 121.58-21.92 121.48-21.58L121.48-21.58 121.48-21.09Q121.48-20.85 121.43-20.61L121.43-20.61Q121.43-19.58 121.19-18.46L121.19-18.46Q120.94-17.04 120.58-15.6 120.21-14.16 120.21-12.7L120.21-12.7Q120.21-12.16 120.26-11.62 120.31-11.08 120.45-10.55L120.45-10.55Q120.21-10.11 120.21-9.42L120.21-9.42Q120.21-8.64 120.48-7.98 120.75-7.32 121.14-6.69L121.14-6.69Q121.82-6.69 122.5-6.74 123.19-6.79 123.92-6.79L123.92-6.79Q124.6-6.79 125.19-6.67 125.78-6.54 126.41-6.15ZM166.15-27.88L166.15-27.15Q166.15-26.46 166.11-25.78 166.06-25.1 165.96-24.41L165.96-24.41Q165.62-23.93 165.3-23.56 164.98-23.19 164.89-22.66L164.89-22.66Q164.35-22.27 163.69-21.58 163.03-20.9 163.13-20.21L163.13-20.21 162.44-20.21Q161.86-19.34 161.08-18.7 160.3-18.07 159.42-17.48L159.42-17.48 157.71-16.36Q156.88-15.82 156.14-15.09L156.14-15.09Q155.75-15.04 155.51-14.94 155.27-14.84 154.88-14.89L154.88-14.89Q153.36-13.92 151.73-13.18 150.09-12.45 148.45-11.74 146.82-11.04 145.21-10.25 143.6-9.47 142.13-8.45L142.13-8.45Q141.98-8.5 141.74-8.5L141.74-8.5Q141.3-8.5 140.86-8.37 140.42-8.25 139.98-8.25L139.98-8.25Q139.79-8.25 139.47-8.3 139.15-8.35 139.01-8.45L139.01-8.45Q138.76-8.59 138.57-8.89 138.37-9.18 138.27-9.55 138.18-9.91 138.13-10.25 138.08-10.6 138.08-10.84L138.08-10.84Q138.08-11.13 138.13-11.47 138.18-11.82 138.27-12.11L138.27-12.11Q139.69-12.21 141.13-12.84 142.57-13.48 143.89-14.06L143.89-14.06Q144.23-14.21 144.45-14.43 144.67-14.65 144.91-14.82 145.16-14.99 145.45-15.14 145.74-15.28 146.18-15.28L146.18-15.28 146.33-15.28Q149.41-16.7 152.36-18.36 155.31-20.02 158.24-21.73L158.24-21.73Q158.39-22.17 158.71-22.61 159.03-23.05 159.32-23.46 159.61-23.88 159.86-24.32 160.1-24.76 160.1-25.2L160.1-25.2Q160.1-26.07 159.27-26.66L159.27-26.66 159.07-26.66Q158.49-26.66 158.05-26.83 157.61-27 157.22-27.17 156.83-27.34 156.34-27.47 155.85-27.59 155.22-27.54L155.22-27.54Q154.97-27.73 154.44-27.88 153.9-28.03 153.56-28.03L153.56-28.03Q151.8-28.03 150.09-27.81 148.38-27.59 146.67-27.54L146.67-27.54Q146.23-27.29 145.84-27.1 145.45-26.9 144.91-26.9L144.91-26.9Q144.67-26.9 144.47-26.93 144.28-26.95 144.04-27L144.04-27Q143.11-26.61 141.94-26.34 140.76-26.07 139.62-25.71 138.47-25.34 137.49-24.8 136.52-24.27 135.98-23.34L135.98-23.34Q135.98-23.1 136.08-22.92 136.17-22.75 136.17-22.51L136.17-22.51 136.17-22.31Q135.88-22.02 135.78-21.66 135.69-21.29 135.64-20.92 135.59-20.56 135.51-20.19 135.44-19.82 135.15-19.48L135.15-19.48Q135.34-18.75 135.34-17.87L135.34-17.87Q135.34-16.89 135.22-15.92 135.1-14.94 135.1-13.96L135.1-13.96Q135.1-13.04 135.3-12.3L135.3-12.3Q135-12.01 135.05-11.43 135.1-10.84 134.81-10.55L134.81-10.55Q134.81-10.16 135.03-10.01 135.25-9.86 135.3-9.52L135.3-9.52Q135.1-8.69 135.1-7.71L135.1-7.71Q135.1-6.3 135.42-4.83 135.73-3.37 136.17-1.95L136.17-1.95Q136.96-2.2 137.86-2.37 138.76-2.54 139.59-2.54L139.59-2.54Q139.74-2.54 139.89-2.51 140.03-2.49 140.18-2.49L140.18-2.49Q140.28-1.95 140.57-1.51 140.86-1.07 141.11-0.54L141.11-0.54Q140.86-0.2 140.69 0.02 140.52 0.24 140.52 0.63L140.52 0.63Q139.84 0.68 139.4 1 138.96 1.32 138.42 1.71L138.42 1.71 138.22 1.71Q137.39 1.71 136.86 2.03 136.32 2.34 135.64 2.73L135.64 2.73Q135.05 2.49 134.47 2.49L134.47 2.49Q133.83 2.49 133.2 2.73L133.2 2.73Q132.41 2.39 131.93 1.68 131.44 0.98 131.1 0.12 130.75-0.73 130.49-1.61 130.22-2.49 129.88-3.22L129.88-3.22 129.88-4Q129.88-5.13 129.7-6.18 129.53-7.23 129.53-8.35L129.53-8.35Q129.53-8.79 129.61-9.28 129.68-9.77 129.88-10.21L129.88-10.21Q129.78-10.64 129.78-11.04L129.78-11.04 129.78-11.96Q129.78-13.43 129.9-14.89 130.02-16.36 130.02-17.82L130.02-17.82Q130.02-18.9 129.88-20.02L129.88-20.02Q129.63-19.92 129.44-19.82 129.24-19.73 129-19.73L129-19.73Q128.75-19.73 128.53-19.78 128.31-19.82 128.12-19.87L128.12-19.87Q127.63-20.31 127.43-20.95 127.24-21.58 126.9-22.12L126.9-22.12Q126.9-23.05 127.17-23.66 127.43-24.27 127.82-24.78 128.22-25.29 128.63-25.78 129.05-26.27 129.34-27L129.34-27 129.53-27Q130.31-27 131.1-27.51 131.88-28.03 132.85-28.03L132.85-28.03Q133.2-28.47 133.78-28.78 134.37-29.1 135.03-29.3 135.69-29.49 136.35-29.57 137-29.64 137.59-29.64L137.59-29.64Q137.79-29.98 138.18-30.1 138.57-30.22 138.98-30.35 139.4-30.47 139.76-30.59 140.13-30.71 140.37-31.05L140.37-31.05Q140.76-30.96 141.11-30.96L141.11-30.96Q141.74-30.96 142.33-31.13 142.91-31.3 143.5-31.52 144.08-31.74 144.69-31.93 145.31-32.13 145.99-32.13L145.99-32.13Q146.23-32.13 146.48-32.1 146.72-32.08 146.97-32.08L146.97-32.08Q147.36-32.08 147.43-32.37 147.5-32.67 147.75-32.81L147.75-32.81Q147.89-32.76 148.28-32.76L148.28-32.76Q149.26-32.76 150.19-32.93 151.12-33.11 152.09-33.11L152.09-33.11Q152.53-33.11 152.97-33.06 153.41-33.01 153.85-32.81L153.85-32.81Q153.95-32.96 154.05-33.06 154.14-33.15 154.19-33.3L154.19-33.3Q156.58-33.15 158.71-32.32 160.83-31.49 163.13-30.86L163.13-30.86Q163.42-30.42 163.81-30.08L163.81-30.08 164.64-29.39Q165.08-29.05 165.47-28.71 165.86-28.37 166.15-27.88L166.15-27.88ZM198.18-7.91L198.18-7.91Q197.99-7.18 197.55-6.69 197.11-6.2 196.55-5.81 195.99-5.42 195.35-5.1 194.72-4.79 194.13-4.39L194.13-4.39 193.5-4.39Q191.45-4.39 190.35-5.4 189.25-6.4 188.66-7.89 188.08-9.38 187.81-11.08 187.54-12.79 187.15-14.21L187.15-14.21Q186.56-13.72 186.17-13.06 185.78-12.4 185.37-11.77 184.95-11.13 184.44-10.6 183.93-10.06 183.1-9.86L183.1-9.86Q182.95-9.52 182.78-9.18 182.61-8.84 182.56-8.45L182.56-8.45Q181.48-7.86 180.61-7.08 179.73-6.3 178.85-5.47 177.97-4.64 177.07-3.88 176.16-3.13 175.04-2.64L175.04-2.64Q174.99-2.69 174.84-2.69L174.84-2.69Q174.26-2.69 173.77-2.42 173.28-2.15 172.7-2.15L172.7-2.15Q172.3-2.15 171.99-2.29 171.67-2.44 171.35-2.64 171.03-2.83 170.69-2.93 170.35-3.03 169.96-2.98L169.96-2.98Q169.47-3.86 168.67-4.61 167.86-5.37 167.67-6.35L167.67-6.35Q167.57-6.79 167.54-7.25 167.52-7.71 167.42-8.2L167.42-8.2Q167.28-8.94 167.03-9.69 166.79-10.45 166.64-11.23L166.64-11.23Q166.88-12.55 167.1-14.14 167.32-15.72 167.64-17.31 167.96-18.9 168.52-20.34 169.08-21.78 169.96-22.8L169.96-22.8 169.91-23.14Q169.91-23.93 170.2-24.61 170.5-25.29 170.84-25.93 171.18-26.56 171.43-27.2 171.67-27.83 171.52-28.61L171.52-28.61Q172.11-28.91 172.74-29.1 173.38-29.3 174.06-29.3L174.06-29.3Q174.7-29.3 175.23-29.1L175.23-29.1Q175.14-28.71 175.58-28.61L175.58-28.61 175.58-28.47Q175.58-27.44 175.33-26.46 175.09-25.49 174.75-24.54 174.4-23.58 174.09-22.63 173.77-21.68 173.62-20.7L173.62-20.7Q173.43-20.65 173.35-20.51 173.28-20.36 173.23-20.21 173.18-20.07 173.09-19.97 172.99-19.87 172.79-19.87L172.79-19.87Q172.5-18.16 172.18-16.48 171.87-14.79 171.87-13.09L171.87-13.09Q171.87-12.06 172.06-10.99 172.26-9.91 172.79-8.94L172.79-8.94 172.99-8.98Q173.53-8.98 173.84-8.74 174.16-8.5 174.7-8.25L174.7-8.25Q175.09-8.35 175.43-8.52 175.77-8.69 175.72-9.13L175.72-9.13Q176.36-9.18 176.8-9.45 177.24-9.72 177.58-10.06L177.58-10.06 178.31-10.74Q178.7-11.08 179.24-11.23L179.24-11.23Q179.24-11.52 179.38-11.67L179.38-11.67 179.68-11.96Q179.82-12.11 179.9-12.28 179.97-12.45 179.92-12.79L179.92-12.79Q180.51-12.84 180.82-13.09 181.14-13.33 181.41-13.65 181.68-13.96 181.92-14.31 182.17-14.65 182.56-14.89L182.56-14.89Q182.9-15.63 183.51-16.85 184.12-18.07 184.73-19.38 185.34-20.7 185.81-21.9 186.27-23.1 186.27-23.73L186.27-23.73Q186.27-23.97 186.15-24.17 186.03-24.37 186.07-24.61L186.07-24.61 186.07-24.76Q186.46-25.24 186.78-25.83 187.1-26.42 187.47-26.95 187.83-27.49 188.27-27.93 188.71-28.37 189.39-28.61L189.39-28.61Q190.18-28.37 190.98-28.27 191.79-28.17 192.52-27.88L192.52-27.88Q192.57-26.66 192.76-25.05 192.96-23.44 193.45-22.31L193.45-22.31Q193.45-21.68 193.42-21.09 193.4-20.51 193.4-19.92L193.4-19.92Q193.4-18.95 193.47-17.92 193.54-16.89 193.79-16.02L193.79-16.02Q193.45-15.28 193.45-14.45L193.45-14.45Q193.45-13.33 193.79-12.33 194.13-11.33 194.28-10.21L194.28-10.21Q194.91-9.33 195.94-9.33L195.94-9.33Q196.18-9.33 196.35-9.38 196.52-9.42 196.72-9.52L196.72-9.52Q197.11-9.08 197.43-8.67 197.74-8.25 198.18-7.91ZM241.69-31.4L241.83-31.4Q241.64-30.76 241.2-30.22L241.2-30.22 240.37-29.2Q239.98-28.71 239.71-28.15 239.44-27.59 239.54-26.86L239.54-26.86Q239.44-26.86 239.29-26.88 239.15-26.9 239.05-26.9L239.05-26.9Q238.27-26.9 237.85-26.54 237.44-26.17 236.76-25.93L236.76-25.93Q236.66-26.22 236.51-26.49 236.36-26.76 236.07-26.86L236.07-26.86Q234.9-26.61 233.73-26.49 232.56-26.37 231.38-26.17L231.38-26.17Q230.85-26.07 230.31-25.9 229.77-25.73 229.19-25.59L229.19-25.59Q228.89-25.49 228.55-25.51 228.21-25.54 227.87-25.49L227.87-25.49Q226.7-25.44 225.33-25.32 223.96-25.2 222.89-24.56L222.89-24.56Q222.4-24.66 221.86-24.71 221.33-24.76 220.79-24.76L220.79-24.76Q219.62-24.76 218.22-24.54 216.83-24.32 215.76-23.68L215.76-23.68Q215.51-23.78 215.25-23.83 214.98-23.88 214.64-23.88L214.64-23.88Q214.54-23.88 214.49-23.85 214.44-23.83 214.34-23.83L214.34-23.83Q214.29-23.39 214.47-22.97 214.64-22.56 215.08-22.31L215.08-22.31Q214.88-21.78 214.88-21.14L214.88-21.14Q214.88-20.31 215-19.48 215.12-18.65 215.12-17.82L215.12-17.82Q215.12-16.89 214.88-16.36L214.88-16.36Q215.37-14.89 215.37-13.23L215.37-13.23Q215.37-12.65 215.3-12.08 215.22-11.52 215.22-10.89L215.22-10.89Q215.22-10.35 215.61-10.03 216-9.72 216-9.18L216-9.18Q216-8.98 215.91-8.79L215.91-8.79Q216.59-8.94 217.22-9.2 217.86-9.47 218.54-9.47L218.54-9.47Q218.93-9.47 219.3-9.33 219.67-9.18 219.96-8.94L219.96-8.94Q219.91-8.69 219.88-8.4 219.86-8.11 219.86-7.81L219.86-7.81Q219.86-7.28 219.88-6.81 219.91-6.35 219.96-5.81L219.96-5.81Q219.57-5.13 219.05-4.59 218.54-4.05 218.35-3.22L218.35-3.22Q217.61-3.22 217.05-2.91 216.49-2.59 216-2.22 215.51-1.86 215.03-1.54 214.54-1.22 213.95-1.22L213.95-1.22Q213.22-1.22 212.93-1.44 212.63-1.66 212.49-1.9 212.34-2.15 212.22-2.34 212.1-2.54 211.71-2.49L211.71-2.49Q211.61-3.13 211.32-3.69 211.02-4.25 210.71-4.79 210.39-5.32 210.07-5.88 209.75-6.45 209.61-7.03L209.61-7.03Q209.31-8.3 209.36-9.67 209.41-11.04 208.92-12.3L208.92-12.3Q209.02-12.99 209.07-13.7 209.12-14.4 209.12-15.09L209.12-15.09Q209.12-16.46 209.05-17.8 208.97-19.14 208.92-20.56L208.92-20.56Q208.58-21 208.51-21.56 208.43-22.12 208.39-22.66L208.39-22.66Q208.24-22.8 208.07-22.95 207.9-23.1 207.85-23.34L207.85-23.34Q207.46-23.44 207.26-23.44L207.26-23.44Q206.58-23.44 206.12-23.12 205.65-22.8 205.26-22.8L205.26-22.8Q204.87-22.8 204.53-22.9 204.19-23 203.84-23L203.84-23Q203.55-23 203.53-22.88 203.5-22.75 203.31-22.66L203.31-22.66Q203.16-22.56 202.62-22.46 202.09-22.36 201.43-22.29 200.77-22.22 200.16-22.17 199.55-22.12 199.35-22.12L199.35-22.12Q198.57-22.12 198.16-22.44 197.74-22.75 197.16-23.14L197.16-23.14Q197.25-23.44 197.25-23.54L197.25-23.54Q197.25-24.02 196.96-24.34 196.67-24.66 196.67-24.9L196.67-24.9Q196.67-25.44 197.08-25.73 197.5-26.03 197.55-26.66L197.55-26.66Q198.67-27.15 199.84-27.39 201.01-27.64 202.23-27.78 203.45-27.93 204.65-28.13 205.85-28.32 207.02-28.76L207.02-28.76Q207.36-28.71 207.68-28.69 208-28.66 208.34-28.66L208.34-28.66Q209.8-28.66 211.24-28.98 212.68-29.3 214.2-29.3L214.2-29.3Q214.59-29.3 214.98-29.25 215.37-29.2 215.76-29.1L215.76-29.1Q217.71-29.39 219.64-29.74 221.57-30.08 223.62-30.32L223.62-30.32Q224.6-30.42 225.55-30.49 226.5-30.57 227.48-30.71L227.48-30.71Q227.82-30.76 227.99-30.88 228.16-31.01 228.16-31.4L228.16-31.4Q228.6-31.2 229.14-31.2L229.14-31.2Q229.97-31.2 230.75-31.49 231.53-31.79 232.36-31.79L232.36-31.79Q232.56-31.79 232.7-31.76 232.85-31.74 233-31.74L233-31.74Q233.34-31.74 233.36-32.06 233.39-32.37 233.83-32.47L233.83-32.47Q234.17-32.57 234.8-32.62 235.44-32.67 236.14-32.74 236.85-32.81 237.46-32.93 238.07-33.06 238.37-33.3L238.37-33.3 238.71-33.84Q239.59-33.79 240-33.08 240.42-32.37 240.47-31.54L240.47-31.54Q240.66-31.35 241.03-31.37 241.39-31.4 241.69-31.4L241.69-31.4ZM265.9-31.05L265.9-31.05 265.9-30.86Q265.56-30.76 265.56-30.37L265.56-30.37Q265.02-30.13 264.44-30 263.85-29.88 263.32-29.64L263.32-29.64Q262.78-29.69 262.22-29.71 261.65-29.74 261.12-29.74L261.12-29.74Q259.65-29.74 258.19-29.64 256.72-29.54 255.26-29.64L255.26-29.64Q254.57-29.25 253.77-29.03 252.96-28.81 252.23-28.81L252.23-28.81Q251.65-28.81 251.21-28.96L251.21-28.96Q250.03-28.37 248.64-27.98 247.25-27.59 245.83-27.22 244.42-26.86 243.12-26.39 241.83-25.93 240.85-25.1L240.85-25.1Q240.76-24.41 240.71-23.75 240.66-23.1 240.66-22.46L240.66-22.46Q240.66-21.78 240.73-21.19 240.81-20.61 241.05-20.02L241.05-20.02Q241.29-19.92 241.61-19.87 241.93-19.82 242.17-19.82L242.17-19.82Q242.42-19.82 242.66-19.9 242.9-19.97 243-20.21L243-20.21Q243.74-20.31 244.47-20.29 245.2-20.26 245.93-20.26L245.93-20.26Q246.66-20.26 247.37-20.31 248.08-20.36 248.76-20.56L248.76-20.56Q249.55-20.75 250.3-20.8 251.06-20.85 251.79-20.9 252.52-20.95 253.31-21.07 254.09-21.19 254.92-21.58L254.92-21.58Q255.55-21.34 256.21-21.34 256.87-21.34 257.5-21.24L257.5-21.24Q257.85-21 258.07-20.7 258.29-20.41 258.29-20.02L258.29-20.02Q258.29-19.34 257.8-18.65 257.31-17.97 257.02-17.38L257.02-17.38 256.48-17.38Q255.31-17.38 254.21-17.07 253.11-16.75 252.01-16.33 250.91-15.92 249.81-15.6 248.72-15.28 247.54-15.28L247.54-15.28Q247.35-15.28 247.32-15.06 247.3-14.84 247.2-14.75L247.2-14.75Q246.96-14.79 246.47-14.79L246.47-14.79Q245.35-14.79 244.32-14.55 243.3-14.31 242.22-14.31L242.22-14.31Q241.93-14.31 241.64-14.33 241.34-14.36 241.05-14.4L241.05-14.4Q240.81-14.01 240.41-13.89 240.02-13.77 239.68-13.48L239.68-13.48Q239.54-13.04 239.51-12.4 239.49-11.77 239.46-11.11 239.44-10.45 239.34-9.86 239.24-9.28 238.95-8.94L238.95-8.94Q239-8.69 239.34-8.76 239.68-8.84 239.68-8.45L239.68-8.45Q239.68-8.01 239.58-7.52 239.49-7.03 239.49-6.54L239.49-6.54Q239.49-5.62 239.71-4.52 239.93-3.42 240.39-2.49 240.85-1.56 241.64-0.95 242.42-0.34 243.59-0.34L243.59-0.34Q244.37-0.34 245.05-0.63 245.74-0.93 246.18-1.61L246.18-1.61 246.42-1.66Q246.62-1.66 246.79-1.61 246.96-1.56 247.15-1.56L247.15-1.56Q247.45-1.56 247.91-1.93 248.37-2.29 248.94-2.78 249.5-3.27 250.08-3.74 250.67-4.2 251.21-4.39L251.21-4.39Q251.55-5.08 251.86-5.76 252.18-6.45 252.82-6.84L252.82-6.84 252.82-8.25Q253.31-8.79 253.87-9.23 254.43-9.67 254.72-10.35L254.72-10.35Q254.97-10.25 255.19-10.21 255.4-10.16 255.65-10.16L255.65-10.16Q255.89-10.16 256.16-10.21 256.43-10.25 256.67-10.35L256.67-10.35Q257.07-9.81 257.28-9.16 257.5-8.5 257.85-7.91L257.85-7.91Q257.41-7.03 256.82-5.81 256.24-4.59 255.55-3.37 254.87-2.15 254.11-1.05 253.35 0.05 252.62 0.63L252.62 0.63Q252.48 0.78 251.99 0.98L251.99 0.98Q251.45 1.37 251.01 1.73 250.57 2.1 250.18 2.59L250.18 2.59Q248.76 3.03 247.47 3.76 246.18 4.49 244.91 5.18L244.91 5.18Q244.32 5.03 243.64 5.03L243.64 5.03Q243.05 5.03 242.47 5.1 241.88 5.18 241.2 5.18L241.2 5.18Q241 4.93 240.63 4.86 240.27 4.79 240.37 4.35L240.37 4.35Q238.71 4.25 237.68 3.44 236.65 2.64 235.95 1.46 235.24 0.29 234.8-1.07 234.36-2.44 233.87-3.71L233.87-3.71 233.87-3.86Q233.87-4.1 234.07-4.15 234.26-4.2 234.26-4.44L234.26-4.44Q234.26-4.54 234.21-4.59L234.21-4.59Q234.07-5.13 233.97-5.52 233.87-5.91 233.87-6.45L233.87-6.45Q233.87-7.23 233.97-7.98 234.07-8.74 234.07-9.52L234.07-9.52Q234.07-10.3 233.87-10.89L233.87-10.89Q234.07-11.13 234.19-11.55 234.31-11.96 234.36-12.4 234.41-12.84 234.43-13.28 234.46-13.72 234.56-14.06L234.56-14.06Q234.36-14.6 234.21-15.01 234.07-15.43 234.07-16.02L234.07-16.02 234.07-16.36Q234.56-17.19 234.9-18.07 235.24-18.95 235.63-19.87L235.63-19.87 235.63-20.02Q235.63-21.44 235.53-22.85 235.43-24.27 235.43-25.68L235.43-25.68 235.43-26.61Q235.43-27.1 235.48-27.54L235.48-27.54Q235.87-27.73 236.07-28.08 236.26-28.42 236.65-28.61L236.65-28.61 238.27-28.61 238.56-29.1Q238.71-29.35 238.75-29.64L238.75-29.64Q239.29-29.79 239.8-30.05 240.32-30.32 240.76-30.62L240.76-30.62Q241.44-31.01 242-31.32 242.56-31.64 243.12-31.86 243.69-32.08 244.32-32.23 244.96-32.37 245.79-32.47L245.79-32.47Q246.18-32.47 246.3-32.62 246.42-32.76 246.66-32.96L246.66-32.96Q247.25-32.86 247.84-32.79 248.42-32.71 249.01-32.71L249.01-32.71Q250.18-32.71 251.21-33.15L251.21-33.15Q252.67-33.15 254.11-33.2 255.55-33.25 257.02-33.25L257.02-33.25Q258.29-33.25 259.56-33.15 260.82-33.06 262.05-32.81L262.05-32.81Q262.49-32.96 263.02-32.96L263.02-32.96Q263.61-32.96 264.22-32.84 264.83-32.71 265.41-32.81L265.41-32.81Q265.46-32.28 265.68-31.91 265.9-31.54 265.9-31.05ZM326.01-8.5L326.01-8.5Q325.91-7.76 325.5-7.37 325.08-6.98 324.54-6.64L324.54-6.64Q324.3-6.69 324.08-6.71 323.86-6.74 323.62-6.74L323.62-6.74Q322.1-6.79 320.76-6.35 319.42-5.91 318-5.71L318-5.71Q317.51-5.62 317.1-5.64 316.68-5.66 316.24-5.57L316.24-5.57Q314.68-5.32 312.92-5.18 311.16-5.03 309.41-4.81 307.65-4.59 305.96-4.27 304.28-3.96 302.81-3.37L302.81-3.37Q302.67-3.47 302.52-3.59 302.38-3.71 302.18-3.71L302.18-3.71Q301.69-3.71 301.25-3.56 300.81-3.42 300.37-3.47L300.37-3.47Q299.88-3.17 299.32-3.05 298.76-2.93 298.2-2.86 297.64-2.78 297.1-2.64 296.56-2.49 296.08-2.1L296.08-2.1Q295.69-2.29 295.12-2.32 294.56-2.34 294.37-2.69L294.37-2.69Q293.24-2.15 292-2 290.75-1.86 289.48-1.9L289.48-1.9Q288.65-1.95 287.58-2.15 286.51-2.34 285.43-2.71 284.36-3.08 283.43-3.59 282.5-4.1 282.01-4.83L282.01-4.83Q281.67-5.32 281.53-5.91 281.38-6.49 280.84-6.79L280.84-6.79Q280.99-7.91 281.18-8.98 281.38-10.06 281.57-11.18L281.57-11.18Q282.55-12.01 283.43-12.94 284.31-13.87 285.09-14.89L285.09-14.89Q286.02-15.33 286.82-15.97 287.63-16.6 288.43-17.26 289.24-17.92 290.05-18.55 290.85-19.19 291.78-19.68L291.78-19.68Q291.93-20.02 292.19-20.24 292.46-20.46 292.76-20.68 293.05-20.9 293.29-21.17 293.54-21.44 293.63-21.83L293.63-21.83Q295.34-22.85 296.61-24.41 297.88-25.98 298.27-27.93L298.27-27.93Q297.44-28.61 296.39-28.83 295.34-29.05 294.22-29.15L294.22-29.15Q293.24-29.2 292.19-29.15 291.14-29.1 290.07-29.2L290.07-29.2Q289-28.86 287.85-28.76 286.7-28.66 285.58-28.59 284.46-28.52 283.36-28.3 282.26-28.08 281.23-27.49L281.23-27.49Q281.04-27.49 280.87-27.54 280.7-27.59 280.5-27.59L280.5-27.59Q278.94-27.64 277.57-26.98 276.2-26.32 274.88-25.68L274.88-25.68Q274.79-25.49 274.79-25.39L274.79-25.39Q274.79-25.1 274.91-24.83 275.03-24.56 275.03-24.27L275.03-24.27Q274.98-24.22 274.98-24.17 274.98-24.12 274.93-24.07L274.93-24.07Q274.88-23.83 274.81-23.63 274.74-23.44 274.64-23.19L274.64-23.19Q274.1-21.63 274.05-20.12L274.05-20.12Q274.01-18.85 274.05-17.63 274.1-16.41 274.05-15.14L274.05-15.14Q273.96-13.57 273.57-12.21L273.57-12.21Q273.81-11.04 274.01-9.74 274.2-8.45 274.49-7.18 274.79-5.91 275.2-4.71 275.62-3.52 276.3-2.44L276.3-2.44Q276.25-2.34 276.35-2.29 276.45-2.25 276.55-2.25L276.55-2.25 276.94-2.25Q277.18-2.25 277.13-2.05L277.13-2.05Q277.23-1.9 277.28-1.78 277.33-1.66 277.47-1.56L277.47-1.56Q277.57-1.42 277.47-1.17L277.47-1.17Q277.42-0.2 276.98 0.63 276.55 1.46 276.45 2.44L276.45 2.44Q275.86 2.59 275.37 2.59L275.37 2.59Q274.54 2.54 273.91 2.12 273.27 1.71 272.74 1.12 272.2 0.54 271.71-0.07 271.22-0.68 270.64-1.12L270.64-1.12Q270.3-2.49 269.98-4.15 269.66-5.81 268.93-6.98L268.93-6.98Q269.12-7.42 269.12-8.06L269.12-8.06Q269.17-9.03 268.95-9.99 268.73-10.94 268.83-11.91L268.83-11.91Q268.83-12.45 268.95-12.99 269.07-13.53 269.12-14.06L269.12-14.06Q269.17-14.89 268.95-15.67 268.73-16.46 268.78-17.29L268.78-17.29Q268.83-17.68 268.95-18.04 269.07-18.41 269.32-18.7L269.32-18.7Q269.07-19.29 269.17-19.82L269.17-19.82Q269.22-20.65 269.37-21.39 269.51-22.12 269.56-22.85L269.56-22.85Q269.56-23.24 269.51-23.61 269.46-23.97 269.37-24.32L269.37-24.32 268.93-24.46Q268.63-24.46 268.37-24.32 268.1-24.17 267.9-23.97 267.71-23.78 267.56-23.66 267.41-23.54 267.27-23.54L267.27-23.54Q267.17-23.54 267.05-23.56 266.93-23.58 266.83-23.58L266.83-23.58Q266.73-23.58 266.46-23.39 266.19-23.19 265.83-22.97 265.46-22.75 265.12-22.53 264.78-22.31 264.58-22.27L264.58-22.27Q264.05-22.36 263.73-22.63 263.41-22.9 263.14-23.17 262.87-23.44 262.58-23.66 262.29-23.88 261.85-23.83L261.85-23.83Q261.7-24.12 261.68-24.46 261.65-24.8 261.7-25.15L261.7-25.15 261.7-25.93Q262.04-26.56 262.6-26.98 263.17-27.39 263.8-27.69L263.8-27.69 265.07-28.27Q265.71-28.56 266.24-29L266.24-29 266.68-29Q267.56-28.96 268.22-29.35 268.88-29.74 269.46-30.25 270.05-30.76 270.66-31.3 271.27-31.84 272-32.13L272-32.13Q272.54-31.88 273.13-31.71 273.71-31.54 274.35-31.49L274.35-31.49Q274.98-31.49 275.67-31.69 276.35-31.88 276.74-32.42L276.74-32.42Q276.98-32.32 277.16-32.3 277.33-32.28 277.57-32.28L277.57-32.28Q278.3-32.23 279.04-32.5 279.77-32.76 280.45-33.15L280.45-33.15Q281.43-33.11 282.38-33.28 283.33-33.45 284.28-33.64 285.24-33.84 286.19-34.01 287.14-34.18 288.12-34.13L288.12-34.13Q289.73-34.08 291.29-34.42 292.85-34.77 294.46-34.67L294.46-34.67Q295.59-34.62 296.69-34.5 297.79-34.38 298.91-34.42L298.91-34.42Q299.54-34.13 300.06-33.91 300.57-33.69 301.35-33.79L301.35-33.79Q302.91-32.47 304.18-30.71L304.18-30.71 304.18-29.88Q304.13-28.76 303.79-27.69 303.45-26.61 302.99-25.56 302.52-24.51 301.98-23.51 301.45-22.51 300.96-21.53L300.96-21.53Q297.79-18.65 294.61-15.82 291.44-12.99 288.07-10.35L288.07-10.35Q287.97-9.86 287.8-9.47 287.63-9.08 287.58-8.64L287.58-8.64Q287.58-8.4 287.63-8.25L287.63-8.25Q287.97-8.15 288.24-7.89 288.51-7.62 288.41-7.18L288.41-7.18 288.85-7.18Q289.09-7.18 289.09-6.98L289.09-6.98 289.88-6.93Q291.73-6.84 293.59-7.03 295.44-7.23 297.32-7.47 299.2-7.71 301.06-7.93 302.91-8.15 304.77-8.2L304.77-8.2Q305.21-8.35 305.7-8.45 306.18-8.54 306.57-8.84L306.57-8.84 306.72-8.84Q307.06-8.84 307.23-8.64 307.4-8.45 307.75-8.4L307.75-8.4Q307.99-8.4 308.26-8.5 308.53-8.59 308.82-8.64L308.82-8.64Q309.5-8.84 310.26-8.89 311.02-8.94 311.75-9.03L311.75-9.03Q314.58-9.28 317.37-9.35 320.15-9.42 322.93-10.06L322.93-10.06Q323.18-9.72 323.62-9.59 324.05-9.47 324.54-9.35 325.03-9.23 325.45-9.08 325.86-8.94 326.01-8.5ZM385.77-53.37L385.77-53.37Q385.77-52.93 385.74-52.49 385.72-52.05 385.67-51.66L385.67-51.66Q385.52-51.42 385.11-51.46 384.69-51.51 384.45-51.51L384.45-51.51Q384.21-51.51 384.04-51.44 383.86-51.37 383.86-51.12L383.86-51.12Q383.86-50.83 383.91-50.73L383.91-50.73Q383.52-50.78 383.08-50.83 382.64-50.88 382.3-51.12L382.3-51.12Q381.62-50.98 381.01-50.73 380.4-50.49 379.81-50.2 379.23-49.9 378.59-49.66 377.96-49.41 377.27-49.37L377.27-49.37Q376.83-48.88 376.15-48.63 375.47-48.39 374.73-48.19 374-48 373.37-47.73 372.73-47.46 372.34-46.92L372.34-46.92Q371.27-46.83 370.29-46.39 369.31-45.95 368.36-45.46 367.41-44.97 366.43-44.53 365.46-44.09 364.33-43.95L364.33-43.95Q364.04-43.65 363.62-43.46 363.21-43.26 362.77-43.09 362.33-42.92 361.94-42.72 361.55-42.53 361.31-42.19L361.31-42.19 361.21-42.19Q361.01-42.19 360.92-42.29 360.82-42.38 360.62-42.38L360.62-42.38Q360.48-42.38 360.43-42.33L360.43-42.33Q359.25-41.8 358.08-41.21 356.91-40.63 355.64-40.09L355.64-40.09Q353.15-39.06 350.61-38.09 348.07-37.11 345.73-35.69L345.73-35.69Q345.19-33.74 344.85-31.71 344.51-29.69 343.63-27.83L343.63-27.83 343.63-25.54Q343.14-24.61 343-23.49 342.85-22.36 342.85-21.34L342.85-21.34Q342.85-20.95 342.87-20.63 342.9-20.31 342.9-19.97L342.9-19.97Q344.31-20.36 345.66-20.85 347-21.34 348.37-21.73L348.37-21.73Q349.05-21.97 349.76-22.07 350.47-22.17 351.15-22.41L351.15-22.41Q351.69-22.56 352.27-22.83 352.86-23.1 353.4-23.34L353.4-23.34Q354.86-23.97 356.4-24.46 357.94-24.95 359.55-25.2L359.55-25.2Q360.04-25.59 360.62-25.93 361.21-26.27 361.79-26.27L361.79-26.27Q362.23-26.27 362.53-26.12L362.53-26.12Q363.36-26.61 364.48-27 365.6-27.39 366.58-27.29L366.58-27.29Q366.82-27.64 367.17-27.76 367.51-27.88 367.9-27.88L367.9-27.88Q368.09-27.88 368.26-27.86 368.43-27.83 368.68-27.83L368.68-27.83Q369.17-28.17 369.75-28.32 370.34-28.47 370.92-28.56 371.51-28.66 372.07-28.83 372.63-29 373.07-29.39L373.07-29.39Q373.76-29.35 374.17-29 374.59-28.66 374.88-28.17 375.17-27.69 375.37-27.15 375.56-26.61 375.86-26.12L375.86-26.12Q375.76-25.73 375.56-25.51 375.37-25.29 375.12-25.1 374.88-24.9 374.68-24.71 374.49-24.51 374.44-24.17L374.44-24.17Q372.73-24.17 371.14-23.68 369.56-23.19 368.02-22.56 366.48-21.92 364.89-21.36 363.31-20.8 361.65-20.65L361.65-20.65Q361.4-20.41 361.01-20.26L361.01-20.26 360.28-20.02Q359.94-19.92 359.65-19.75 359.35-19.58 359.21-19.24L359.21-19.24Q358.91-19.38 358.57-19.38L358.57-19.38Q357.74-19.38 356.96-18.95 356.18-18.51 355.2-18.51L355.2-18.51Q354.81-18.51 354.67-18.55L354.67-18.55Q354.42-18.12 353.96-17.92 353.49-17.72 352.98-17.6 352.47-17.48 352-17.29 351.54-17.09 351.3-16.6L351.3-16.6Q351.15-16.65 350.95-16.65L350.95-16.65 350.66-16.65Q349.88-16.65 348.88-16.38 347.88-16.11 347.44-15.38L347.44-15.38Q347.05-15.48 346.75-15.48L346.75-15.48Q346.07-15.48 345.53-15.21 345-14.94 344.46-14.6L344.46-14.6 343.39-13.92Q342.85-13.57 342.21-13.43L342.21-13.43Q340.94-11.62 340.46-9.28 339.97-6.93 339.75-4.39 339.53-1.86 339.33 0.66 339.14 3.17 338.55 5.27L338.55 5.27Q338.84 6.05 338.99 6.93 339.14 7.81 339.24 8.72 339.33 9.62 339.43 10.55 339.53 11.47 339.77 12.3L339.77 12.3Q340.02 13.33 340.72 14.14 341.43 14.94 341.73 15.97L341.73 15.97Q341.97 16.02 342.24 16.04 342.51 16.06 342.8 16.06L342.8 16.06Q344.56 16.06 345.9 15.38 347.24 14.7 348.42 13.7 349.59 12.7 350.69 11.55 351.78 10.4 353.05 9.52L353.05 9.52 353.98 9.52Q354.32 9.13 354.57 8.69 354.81 8.25 355.1 7.86 355.4 7.47 355.79 7.2 356.18 6.93 356.76 6.84L356.76 6.84Q356.91 6.1 357.45 5.71 357.99 5.32 358.18 4.54L358.18 4.54Q358.28 4.59 358.42 4.59L358.42 4.59Q358.82 4.59 359.01 4.39L359.01 4.39 359.74 3.71Q360.13 3.32 360.6 2.95 361.06 2.59 361.5 2.25L361.5 2.25Q362.92 1.22 364.33 0.22 365.75-0.78 366.92-2.1L366.92-2.1Q366.97-2.05 367.07-2.05L367.07-2.05Q367.46-2.05 367.6-2.29 367.75-2.54 368.29-2.44L368.29-2.44Q368.58-2.88 368.83-3.34 369.07-3.81 369.22-4.35L369.22-4.35 370.78-4.15Q371.56-4.05 372.34-4.05L372.34-4.05Q372.58-4.05 372.8-4.08 373.02-4.1 373.22-4.2L373.22-4.2Q373.81-3.27 373.85-2.22 373.9-1.17 374.1-0.15L374.1-0.15Q374-0.15 373.98-0.17 373.95-0.2 373.85-0.2L373.85-0.2Q373.61-0.2 373.39-0.02 373.17 0.15 372.93 0.39L372.93 0.39 372.44 0.88Q372.19 1.12 372 1.27L372 1.27Q371.46 1.61 370.88 1.88 370.29 2.15 369.75 2.44 369.22 2.73 368.73 3.15 368.24 3.56 367.95 4.2L367.95 4.2Q366.97 4.59 366.07 5.03 365.16 5.47 364.33 5.96L364.33 5.96Q364.09 6.2 363.89 6.45 363.7 6.69 363.6 6.98L363.6 6.98Q362.28 7.42 361.43 8.3 360.57 9.18 359.69 10.21L359.69 10.21 359.65 10.16Q359.3 10.16 359.23 10.4 359.16 10.64 358.67 10.55L358.67 10.55Q357.74 11.57 356.72 12.45 355.69 13.33 354.62 14.21 353.54 15.09 352.47 15.99 351.39 16.89 350.47 17.92L350.47 17.92Q349.83 18.12 349.25 18.41 348.66 18.7 348.37 19.29L348.37 19.29 348.22 19.29Q347.68 19.29 347.46 19.53 347.24 19.78 346.95 20.17L346.95 20.17Q345.92 20.41 344.85 20.7 343.78 21 342.65 21L342.65 21Q341.87 21 341.16 20.7 340.46 20.41 339.8 19.95 339.14 19.48 338.58 18.95 338.01 18.41 337.53 17.92L337.53 17.92Q337.23 16.94 336.77 15.89 336.31 14.84 336.31 13.87L336.31 13.87Q336.31 13.62 336.38 13.4 336.45 13.18 336.45 12.99L336.45 12.99Q336.45 12.65 336.23 12.7 336.01 12.74 335.92 12.45L335.92 12.45Q335.82 11.96 335.79 11.35 335.77 10.74 335.67 10.21L335.67 10.21Q335.52 9.08 335.3 7.91 335.08 6.74 334.84 5.62L334.84 5.62Q335.04 5.52 335.16 5.3 335.28 5.08 335.43 4.88L335.43 4.88Q335.28 4.49 335.16 4.03 335.04 3.56 335.04 3.08L335.04 3.08Q335.04 2.1 335.77 1.61L335.77 1.61Q335.77 1.27 335.6 1.1 335.43 0.93 335.43 0.54L335.43 0.54Q335.43 0.44 335.5-0.02 335.57-0.49 335.7-1.07 335.82-1.66 335.92-2.2 336.01-2.73 336.06-2.93L336.06-2.93Q336.4-5.18 336.65-7.35 336.89-9.52 337.33-11.72L337.33-11.72Q336.84-12.11 336.09-12.33 335.33-12.55 335.04-12.94L335.04-12.94Q334.79-13.28 334.65-13.82 334.5-14.36 334.5-14.75L334.5-14.75Q334.5-16.16 335.62-17.02 336.75-17.87 338.01-18.02L338.01-18.02Q338.65-19.73 338.97-21.51 339.28-23.29 339.48-25.1L339.48-25.1 339.87-28.76Q340.07-30.62 340.46-32.42L340.46-32.42 340.16-32.42Q339.19-32.42 338.26-32.13 337.33-31.84 336.35-31.84L336.35-31.84 336.26-31.84Q334.84-32.96 334.84-34.52L334.84-34.52Q334.84-35.45 335.23-36.38L335.23-36.38Q336.01-36.67 336.65-37.16 337.28-37.65 337.94-38.16 338.6-38.67 339.28-39.06 339.97-39.45 340.8-39.55L340.8-39.55Q340.9-40.97 341.29-42.38 341.68-43.8 341.68-45.21L341.68-45.21Q341.68-45.51 341.65-45.8 341.63-46.09 341.53-46.39L341.53-46.39Q341.87-46.83 341.99-47.31 342.12-47.8 342.12-48.34L342.12-48.34Q342.12-48.93 342.04-49.49 341.97-50.05 341.87-50.59L341.87-50.59Q342.31-50.78 342.56-51 342.8-51.22 343.02-51.42 343.24-51.61 343.58-51.76 343.92-51.9 344.56-51.9L344.56-51.9Q345.49-51.9 346.14-51.54 346.8-51.17 347.29-50.59 347.78-50 348.15-49.27 348.51-48.54 348.85-47.8L348.85-47.8Q348.76-47.27 348.42-47.02 348.07-46.78 347.83-46.39L347.83-46.39Q347.93-45.61 348.02-44.9 348.12-44.19 348.02-43.41L348.02-43.41Q348.51-43.16 348.95-43.16L348.95-43.16Q349.68-43.16 350.29-43.55 350.91-43.95 351.15-44.63L351.15-44.63 351.25-44.63Q351.39-44.63 351.52-44.53 351.64-44.43 351.83-44.43L351.83-44.43 352.03-44.43Q352.57-44.92 353.2-45.19 353.83-45.46 354.52-45.7 355.2-45.95 355.86-46.22 356.52-46.48 357.11-46.92L357.11-46.92Q357.4-46.78 357.74-46.78L357.74-46.78Q358.23-46.78 358.69-46.97 359.16-47.17 359.6-47.39 360.04-47.61 360.55-47.8 361.06-48 361.65-48L361.65-48Q361.75-48 361.89-47.97 362.04-47.95 362.14-47.95L362.14-47.95Q362.48-47.95 362.53-48.19 362.58-48.44 362.53-48.63L362.53-48.63Q364.09-49.02 365.24-49.54 366.38-50.05 367.8-50.73L367.8-50.73Q367.8-50.78 367.9-50.78L367.9-50.78Q368.04-50.78 368.09-50.63 368.14-50.49 368.14-50.39L368.14-50.39Q368.43-50.54 368.46-50.88 368.48-51.22 368.68-51.46L368.68-51.46Q368.87-51.42 369.22-51.42L369.22-51.42Q369.66-51.42 370.12-51.61 370.58-51.81 371.02-52.05 371.46-52.29 371.9-52.49 372.34-52.69 372.78-52.69L372.78-52.69Q373.17-52.69 373.42-52.49L373.42-52.49Q373.71-52.64 374-52.91 374.29-53.17 374.64-53.17L374.64-53.17Q374.73-53.17 374.81-53.13 374.88-53.08 374.98-53.03L374.98-53.03Q375.22-53.27 375.44-53.42 375.66-53.56 375.66-53.91L375.66-53.91Q377.47-54.1 379.01-54.71 380.54-55.32 381.96-56.35L381.96-56.35Q382.5-56.25 383.01-56.13 383.52-56.01 384.06-56.01L384.06-56.01Q384.35-55.47 384.6-54.93 384.84-54.39 385.67-54.44L385.67-54.44Q385.72-54.2 385.74-53.91 385.77-53.61 385.77-53.37ZM412.52-32.08L412.52-32.08Q412.43-31.49 412.26-31.08 412.08-30.66 412.18-29.98L412.18-29.98Q411.69-29.93 411.43-29.66 411.16-29.39 410.99-29.05 410.81-28.71 410.64-28.34 410.47-27.98 410.23-27.69L410.23-27.69Q410.62-25.93 410.67-24.12 410.72-22.31 410.91-20.56L410.91-20.56Q411.16-18.31 411.67-16.14 412.18-13.96 412.18-11.72L412.18-11.72Q412.18-11.04 412.16-10.45 412.13-9.86 412.13-9.23L412.13-9.23Q412.13-8.84 412.16-8.42 412.18-8.01 412.18-7.62L412.18-7.62Q412.18-6.2 411.82-4.79 411.45-3.37 411.25-1.95L411.25-1.95Q410.67-1.42 410.25-0.78 409.84-0.15 409.4 0.39 408.96 0.93 408.37 1.34 407.79 1.76 406.91 1.9L406.91 1.9Q406.76 2.39 406.35 2.64 405.93 2.88 405.64 3.32L405.64 3.32 405.54 3.32Q404.32 3.32 403.44 2.98 402.56 2.64 401.81 2.2 401.05 1.76 400.27 1.27 399.49 0.78 398.46 0.49L398.46 0.49Q397.09-0.63 395.97-1.98 394.85-3.32 393.43-4.39L393.43-4.39Q393.09-5.37 392.53-6.01 391.97-6.64 391.43-7.47L391.43-7.47Q391.19-7.81 391.06-8.11 390.94-8.4 390.75-8.79L390.75-8.79Q390.6-9.18 390.28-9.33 389.97-9.47 389.72-9.67L389.72-9.67Q389.33-11.18 388.6-12.45 387.87-13.72 386.89-14.89L386.89-14.89Q386.6-14.36 386.43-13.75 386.25-13.13 386.11-12.52 385.96-11.91 385.74-11.3 385.52-10.69 385.18-10.21L385.18-10.21 385.18-10.06Q385.18-9.81 385.38-9.77 385.57-9.72 385.57-9.47L385.57-9.47Q385.57-9.42 385.55-9.38 385.52-9.33 385.52-9.28L385.52-9.28Q385.28-9.08 385.16-8.79 385.03-8.5 384.64-8.45L384.64-8.45Q384.69-8.2 384.69-7.96L384.69-7.96 384.69-7.52Q384.69-6.1 384.37-4.69 384.06-3.27 384.06-1.81L384.06-1.81 384.06-1.17Q384.06-0.83 384.11-0.54L384.11-0.54Q384.2-0.24 384.4 0.05 384.59 0.34 384.59 0.59L384.59 0.59Q384.59 0.93 384.3 1.22L384.3 1.22Q384.64 1.46 385.08 1.76 385.52 2.05 385.89 2.42 386.25 2.78 386.5 3.2 386.74 3.61 386.74 4.1L386.74 4.1Q386.74 4.93 386.21 5.27 385.67 5.62 384.91 5.81 384.15 6.01 383.35 6.18 382.54 6.35 382.01 6.79L382.01 6.79 381.86 6.79Q381.27 6.79 380.98 6.45 380.69 6.1 380.1 6.1L380.1 6.1Q379.17 4.59 378.83 2.71 378.49 0.83 378.49-0.88L378.49-0.88Q378.49-2.98 378.86-5.08 379.22-7.18 379.74-9.23 380.25-11.28 380.86-13.31 381.47-15.33 382.01-17.38L382.01-17.38 382.06-17.53Q382.06-17.77 381.93-17.87 381.81-17.97 381.81-18.16L381.81-18.16Q381.81-18.26 381.86-18.26L381.86-18.26Q382.01-18.75 382.18-19.19 382.35-19.63 382.45-20.17L382.45-20.17Q382.74-21.53 382.86-22.97 382.98-24.41 383.01-25.83 383.03-27.25 383.1-28.69 383.18-30.13 383.42-31.54L383.42-31.54Q383.81-31.93 384.15-32.37 384.5-32.81 385.03-33.15L385.03-33.15Q386.01-33.11 386.99-32.86 387.96-32.62 388.84-32.08L388.84-32.08Q389.43-29.98 389.65-27.88 389.87-25.78 390.4-23.68L390.4-23.68 390.4-23.54Q390.4-23.29 390.67-23.32 390.94-23.34 391.09-23.14L391.09-23.14Q390.99-23 390.97-22.8 390.94-22.61 390.94-22.41L390.94-22.41 390.94-21.58Q391.04-21.19 391.19-20.75 391.33-20.31 391.82-20.21L391.82-20.21Q392.06-18.65 392.55-17.33 393.04-16.02 393.68-14.79 394.31-13.57 395.04-12.38 395.78-11.18 396.56-9.86L396.56-9.86Q397.78-8.94 398.66-7.74 399.54-6.54 400.44-5.44 401.34-4.35 402.49-3.52 403.64-2.69 405.49-2.49L405.49-2.49Q405.74-2.69 405.83-3.03L405.83-3.03 406.08-3.71Q406.23-4.05 406.4-4.32 406.57-4.59 406.91-4.74L406.91-4.74Q407.01-6.1 407.13-7.52 407.25-8.94 407.74-10.21L407.74-10.21Q407.49-10.64 407.49-11.28L407.49-11.28Q407.49-11.77 407.57-12.21 407.64-12.65 407.64-13.09L407.64-13.09Q407.64-14.01 407.25-14.6L407.25-14.6Q407.25-14.94 407.3-15.31 407.35-15.67 407.59-16.02L407.59-16.02Q407.2-16.99 406.98-18.07 406.76-19.14 406.76-20.26L406.76-20.26Q406.76-20.9 406.91-21.58L406.91-21.58Q406.62-22.31 406.52-23.29L406.52-23.29 406.32-25.29Q406.23-26.32 406.03-27.2 405.83-28.08 405.3-28.61L405.3-28.61Q405.59-29.05 405.59-29.64L405.59-29.64Q405.59-30.62 405.3-31.49 405-32.37 405-33.35L405-33.35Q405-34.03 405.3-34.72L405.3-34.72Q406.37-34.67 407.42-34.5 408.47-34.33 409.5-34.33L409.5-34.33Q409.79-33.94 410.18-33.69 410.57-33.45 411.01-33.23 411.45-33.01 411.86-32.76 412.28-32.52 412.52-32.08ZM468.28-27L468.28-27Q468.14-26.56 467.72-26.39 467.31-26.22 466.87-26.12 466.43-26.03 466.06-25.81 465.7-25.59 465.6-25.1L465.6-25.1 465.5-25.05Q465.3-25.05 465.23-25.17 465.16-25.29 465.11-25.42 465.06-25.54 464.99-25.66 464.91-25.78 464.77-25.78L464.77-25.78Q464.23-25.78 463.72-25.68 463.2-25.59 462.72-25.59L462.72-25.59Q461.98-25.59 461.4-25.78L461.4-25.78Q461.06-25.68 461.03-25.34 461.01-25 460.71-24.9L460.71-24.9Q460.47-24.8 460.13-24.83 459.79-24.85 459.45-24.76L459.45-24.76 457.88-24.37Q457.1-24.17 456.32-24.17L456.32-24.17Q455.88-24.17 455.69-24.22L455.69-24.22Q454.95-23.63 454.03-23.36 453.1-23.1 452.1-22.88 451.1-22.66 450.14-22.31 449.19-21.97 448.46-21.24L448.46-21.24Q448.07-21.34 447.78-21.34L447.78-21.34Q447.14-21.34 446.65-21.07 446.16-20.8 445.63-20.56L445.63-20.56Q445.38-20.46 445.14-20.46 444.89-20.46 444.6-20.36L444.6-20.36Q444.31-20.26 444.24-20.04 444.16-19.82 443.92-19.63L443.92-19.63Q443.92-17.87 444.26-16.14 444.6-14.4 444.6-12.65L444.6-12.65 444.6-12.45Q444.7-11.62 445.14-10.91 445.58-10.21 445.58-9.47L445.58-9.47Q445.58-9.23 445.48-8.94L445.48-8.94Q446.75-8.64 447.16-7.64 447.58-6.64 447.85-5.49 448.12-4.35 448.58-3.37 449.04-2.39 450.41-2.15L450.41-2.15Q450.51-1.66 450.56-1.15 450.61-0.63 450.61-0.15L450.61-0.15Q450.61 0.54 450.46 1.2 450.31 1.86 449.87 2.39L449.87 2.39Q449.14 2.44 448.8 2.44 448.46 2.44 447.78 2.73L447.78 2.73Q446.8 2.15 446.04 1.39 445.29 0.63 444.63-0.22 443.97-1.07 443.33-1.98 442.7-2.88 441.96-3.71L441.96-3.71Q439.43-3.08 436.76-2.86 434.1-2.64 431.47-2.64L431.47-2.64Q431.37-2.54 431.17-2.54 430.98-2.54 430.81-2.51 430.64-2.49 430.51-2.42 430.39-2.34 430.44-2.15L430.44-2.15Q430.1-2.34 429.68-2.42 429.27-2.49 428.93-2.49L428.93-2.49Q428.68-2.49 428.44-2.47 428.2-2.44 427.95-2.29L427.95-2.29Q426.1-2.64 424.36-3.25 422.63-3.86 420.82-4.25L420.82-4.25Q420.82-4.64 420.63-4.81 420.43-4.98 420.29-5.32L420.29-5.32Q418.23-6.59 416.84-8.4 415.45-10.21 415.7-12.79L415.7-12.79 415.35-13.48Q415.35-14.26 415.7-14.6L415.7-14.6Q415.5-14.94 415.01-15.28L415.01-15.28Q415.45-15.97 415.79-16.7 416.13-17.43 416.28-18.26L416.28-18.26Q416.33-18.51 416.33-18.7 416.33-18.9 416.43-19.14L416.43-19.14Q416.53-19.43 416.7-19.8 416.87-20.17 417.01-20.46L417.01-20.46Q417.79-22.12 418.75-23.66 419.7-25.2 421.16-26.32L421.16-26.32Q421.26-27.15 421.65-27.71 422.04-28.27 422.51-28.74 422.97-29.2 423.43-29.69 423.9-30.18 424.14-30.86L424.14-30.86Q425.12-31.69 426.12-32.47 427.12-33.25 427.8-34.33L427.8-34.33Q428.68-34.62 429.46-35.08 430.25-35.55 430.78-36.28L430.78-36.28Q431.95-36.38 433.1-36.72 434.25-37.06 435.52-37.06L435.52-37.06Q436.06-37.06 436.81-36.84 437.57-36.62 437.96-36.08L437.96-36.08Q438.01-35.99 438.01-35.84L438.01-35.84 438.06-35.6Q438.11-35.5 438.18-35.42 438.25-35.35 438.45-35.4L438.45-35.4Q438.45-34.33 438.2-33.23 437.96-32.13 436.94-31.54L436.94-31.54Q436.3-31.74 435.57-31.74L435.57-31.74Q434.59-31.74 433.79-31.37 432.98-31.01 432.22-30.54 431.47-30.08 430.69-29.61 429.9-29.15 429.03-28.96L429.03-28.96Q428.93-28.56 428.85-28.25 428.78-27.93 428.88-27.54L428.88-27.54Q428.63-27.54 428.51-27.61 428.39-27.69 428.15-27.69L428.15-27.69Q427.8-27.69 427.68-27.29 427.56-26.9 427.46-26.66L427.46-26.66Q426.54-26.27 425.92-25.56 425.31-24.85 424.8-24.05 424.29-23.24 423.7-22.51 423.12-21.78 422.24-21.39L422.24-21.39Q421.85-19.82 421.48-18.31 421.12-16.8 420.63-15.28L420.63-15.28Q420.77-14.7 420.77-14.06L420.77-14.06Q420.77-13.28 420.63-12.65L420.63-12.65Q420.87-12.26 421.12-11.72L421.12-11.72 421.7-10.6Q421.99-10.01 422.31-9.52 422.63-9.03 422.92-8.79L422.92-8.79Q423.46-8.4 424.58-8.08 425.7-7.76 426.58-7.03L426.58-7.03Q426.68-7.03 426.83-7.06 426.97-7.08 427.07-7.08L427.07-7.08Q427.66-7.08 428.34-6.79 429.03-6.49 429.22-6.49L429.22-6.49Q431.95-6.49 435.18-6.86 438.4-7.23 441.13-7.76L441.13-7.76Q441.23-8.25 441.23-8.59L441.23-8.59Q441.23-9.23 441.04-9.84 440.84-10.45 440.4-10.89L440.4-10.89Q440.4-11.62 440.43-12.35 440.45-13.09 440.45-13.82L440.45-13.82Q440.45-15.04 440.35-16.41 440.26-17.77 439.87-18.95L439.87-18.95 439.77-18.95Q439.13-18.95 438.62-18.63 438.11-18.31 437.57-18.31L437.57-18.31Q437.28-18.31 437.08-18.46L437.08-18.46Q436.5-17.77 435.67-17.43 434.84-17.09 433.91-16.82 432.98-16.55 432.08-16.26 431.17-15.97 430.44-15.43L430.44-15.43Q430.05-15.58 429.71-15.58L429.71-15.58Q429.37-15.58 429.05-15.53 428.73-15.48 428.34-15.43L428.34-15.43Q427.32-16.31 427.32-17.63L427.32-17.63Q427.32-18.31 427.54-18.97 427.76-19.63 428.15-20.21L428.15-20.21Q428.39-20.36 428.73-20.39 429.07-20.41 429.42-20.48 429.76-20.56 429.98-20.7 430.2-20.85 430.25-21.24L430.25-21.24Q430.39-21.09 430.49-21.09L430.49-21.09Q430.59-21.09 430.69-21.14 430.78-21.19 430.88-21.19L430.88-21.19Q430.98-21.19 431.05-21.09 431.12-21 431.12-20.9L431.12-20.9Q433.22-22.02 435.42-22.8 437.62-23.58 439.89-24.22 442.16-24.85 444.45-25.42 446.75-25.98 449-26.66L449-26.66Q449.34-26.95 449.73-27.1 450.12-27.25 450.41-27.54L450.41-27.54Q450.75-27.34 451.24-27.34L451.24-27.34Q451.93-27.34 452.73-27.61 453.54-27.88 454.07-28.27L454.07-28.27Q454.27-28.22 454.42-28.22L454.42-28.22 454.76-28.22Q455.73-28.22 456.59-28.52 457.44-28.81 458.27-29.3L458.27-29.3 458.52-29.3Q460.03-29.3 461.52-29.64 463.01-29.98 464.57-29.98L464.57-29.98Q466.57-29.98 468.09-28.96L468.09-28.96 468.09-28.37Q468.09-27.98 468.11-27.66 468.14-27.34 468.28-27ZM464.72-6.69L464.72-6.69Q464.47-6.3 464.13-5.98 463.79-5.66 463.5-5.32L463.5-5.32Q463.15-5.18 462.74-5.18 462.32-5.18 461.96-5.2 461.59-5.22 461.27-5.2 460.96-5.18 460.76-4.98L460.76-4.98Q460.37-5.08 460.18-5.35 459.98-5.62 459.49-5.66L459.49-5.66Q459.3-5.71 459.1-5.66L459.1-5.66Q458.37-6.49 457.76-7.42 457.15-8.35 456.61-9.18L456.61-9.18Q456.56-10.99 456.32-12.84L456.32-12.84Q456.27-13.28 456.17-13.72 456.07-14.16 456.02-14.55L456.02-14.55Q456.02-15.04 456.1-15.5 456.17-15.97 456.22-16.36L456.22-16.36Q456.42-17.77 456.66-19.14 456.9-20.51 457.1-21.92L457.1-21.92Q457.29-23.19 457.29-24.58 457.29-25.98 456.85-27.2L456.85-27.2 456.81-27.44Q456.9-27.83 457.03-28.1 457.15-28.37 457.2-28.71L457.2-28.71Q457.29-29.25 456.95-29.49L456.95-29.49Q457.1-29.88 457.44-30 457.78-30.13 457.83-30.57L457.83-30.57Q457.88-30.76 457.83-30.96L457.83-30.96Q458.22-31.1 458.64-31.23 459.05-31.35 459.44-31.25L459.44-31.25Q460.08-31.15 460.57-30.83 461.05-30.52 461.49-30.13L461.49-30.13Q462.27-27.78 462.13-25.17 461.98-22.56 461.64-19.92 461.3-17.29 461.2-14.77 461.1-12.26 461.98-10.11L461.98-10.11 462.08-10.06Q462.32-10.01 462.47-10.23 462.62-10.45 462.86-10.4L462.86-10.4Q463.06-10.3 463.1-10.3L463.1-10.3Q463.3-9.33 463.74-8.45 464.18-7.57 464.72-6.69ZM501.48-32.08L501.48-32.08Q501.38-31.49 501.21-31.08 501.04-30.66 501.14-29.98L501.14-29.98Q500.65-29.93 500.38-29.66 500.11-29.39 499.94-29.05 499.77-28.71 499.6-28.34 499.43-27.98 499.19-27.69L499.19-27.69Q499.58-25.93 499.63-24.12 499.67-22.31 499.87-20.56L499.87-20.56Q500.11-18.31 500.63-16.14 501.14-13.96 501.14-11.72L501.14-11.72Q501.14-11.04 501.11-10.45 501.09-9.86 501.09-9.23L501.09-9.23Q501.09-8.84 501.11-8.42 501.14-8.01 501.14-7.62L501.14-7.62Q501.14-6.2 500.77-4.79 500.41-3.37 500.21-1.95L500.21-1.95Q499.63-1.42 499.21-0.78 498.8-0.15 498.36 0.39 497.92 0.93 497.33 1.34 496.74 1.76 495.87 1.9L495.87 1.9Q495.72 2.39 495.3 2.64 494.89 2.88 494.6 3.32L494.6 3.32 494.5 3.32Q493.28 3.32 492.4 2.98 491.52 2.64 490.76 2.2 490.01 1.76 489.23 1.27 488.44 0.78 487.42 0.49L487.42 0.49Q486.05-0.63 484.93-1.98 483.81-3.32 482.39-4.39L482.39-4.39Q482.05-5.37 481.49-6.01 480.92-6.64 480.39-7.47L480.39-7.47Q480.14-7.81 480.02-8.11 479.9-8.4 479.7-8.79L479.7-8.79Q479.56-9.18 479.24-9.33 478.92-9.47 478.68-9.67L478.68-9.67Q478.29-11.18 477.56-12.45 476.82-13.72 475.85-14.89L475.85-14.89Q475.55-14.36 475.38-13.75 475.21-13.13 475.07-12.52 474.92-11.91 474.7-11.3 474.48-10.69 474.14-10.21L474.14-10.21 474.14-10.06Q474.14-9.81 474.33-9.77 474.53-9.72 474.53-9.47L474.53-9.47Q474.53-9.42 474.5-9.38 474.48-9.33 474.48-9.28L474.48-9.28Q474.24-9.08 474.11-8.79 473.99-8.5 473.6-8.45L473.6-8.45Q473.65-8.2 473.65-7.96L473.65-7.96 473.65-7.52Q473.65-6.1 473.33-4.69 473.01-3.27 473.01-1.81L473.01-1.81 473.01-1.17Q473.01-0.83 473.06-0.54L473.06-0.54Q473.16-0.24 473.36 0.05 473.55 0.34 473.55 0.59L473.55 0.59Q473.55 0.93 473.26 1.22L473.26 1.22Q473.6 1.46 474.04 1.76 474.48 2.05 474.85 2.42 475.21 2.78 475.46 3.2 475.7 3.61 475.7 4.1L475.7 4.1Q475.7 4.93 475.16 5.27 474.63 5.62 473.87 5.81 473.11 6.01 472.31 6.18 471.5 6.35 470.96 6.79L470.96 6.79 470.82 6.79Q470.23 6.79 469.94 6.45 469.65 6.1 469.06 6.1L469.06 6.1Q468.13 4.59 467.79 2.71 467.45 0.83 467.45-0.88L467.45-0.88Q467.45-2.98 467.81-5.08 468.18-7.18 468.69-9.23 469.21-11.28 469.82-13.31 470.43-15.33 470.96-17.38L470.96-17.38 471.01-17.53Q471.01-17.77 470.89-17.87 470.77-17.97 470.77-18.16L470.77-18.16Q470.77-18.26 470.82-18.26L470.82-18.26Q470.96-18.75 471.13-19.19 471.31-19.63 471.4-20.17L471.4-20.17Q471.7-21.53 471.82-22.97 471.94-24.41 471.96-25.83 471.99-27.25 472.06-28.69 472.14-30.13 472.38-31.54L472.38-31.54Q472.77-31.93 473.11-32.37 473.45-32.81 473.99-33.15L473.99-33.15Q474.97-33.11 475.94-32.86 476.92-32.62 477.8-32.08L477.8-32.08Q478.39-29.98 478.61-27.88 478.82-25.78 479.36-23.68L479.36-23.68 479.36-23.54Q479.36-23.29 479.63-23.32 479.9-23.34 480.05-23.14L480.05-23.14Q479.95-23 479.92-22.8 479.9-22.61 479.9-22.41L479.9-22.41 479.9-21.58Q480-21.19 480.14-20.75 480.29-20.31 480.78-20.21L480.78-20.21Q481.02-18.65 481.51-17.33 482-16.02 482.63-14.79 483.27-13.57 484-12.38 484.73-11.18 485.51-9.86L485.51-9.86Q486.74-8.94 487.61-7.74 488.49-6.54 489.4-5.44 490.3-4.35 491.45-3.52 492.59-2.69 494.45-2.49L494.45-2.49Q494.69-2.69 494.79-3.03L494.79-3.03 495.04-3.71Q495.18-4.05 495.35-4.32 495.52-4.59 495.87-4.74L495.87-4.74Q495.96-6.1 496.09-7.52 496.21-8.94 496.7-10.21L496.7-10.21Q496.45-10.64 496.45-11.28L496.45-11.28Q496.45-11.77 496.53-12.21 496.6-12.65 496.6-13.09L496.6-13.09Q496.6-14.01 496.21-14.6L496.21-14.6Q496.21-14.94 496.26-15.31 496.31-15.67 496.55-16.02L496.55-16.02Q496.16-16.99 495.94-18.07 495.72-19.14 495.72-20.26L495.72-20.26Q495.72-20.9 495.87-21.58L495.87-21.58Q495.57-22.31 495.48-23.29L495.48-23.29 495.28-25.29Q495.18-26.32 494.99-27.2 494.79-28.08 494.25-28.61L494.25-28.61Q494.55-29.05 494.55-29.64L494.55-29.64Q494.55-30.62 494.25-31.49 493.96-32.37 493.96-33.35L493.96-33.35Q493.96-34.03 494.25-34.72L494.25-34.72Q495.33-34.67 496.38-34.5 497.43-34.33 498.45-34.33L498.45-34.33Q498.75-33.94 499.14-33.69 499.53-33.45 499.97-33.23 500.41-33.01 500.82-32.76 501.24-32.52 501.48-32.08ZM537.27-31.05L537.27-31.05 537.27-30.86Q536.93-30.76 536.93-30.37L536.93-30.37Q536.39-30.13 535.8-30 535.22-29.88 534.68-29.64L534.68-29.64Q534.14-29.69 533.58-29.71 533.02-29.74 532.48-29.74L532.48-29.74Q531.02-29.74 529.55-29.64 528.09-29.54 526.63-29.64L526.63-29.64Q525.94-29.25 525.14-29.03 524.33-28.81 523.6-28.81L523.6-28.81Q523.01-28.81 522.57-28.96L522.57-28.96Q521.4-28.37 520.01-27.98 518.62-27.59 517.2-27.22 515.79-26.86 514.49-26.39 513.2-25.93 512.22-25.1L512.22-25.1Q512.12-24.41 512.07-23.75 512.03-23.1 512.03-22.46L512.03-22.46Q512.03-21.78 512.1-21.19 512.17-20.61 512.42-20.02L512.42-20.02Q512.66-19.92 512.98-19.87 513.3-19.82 513.54-19.82L513.54-19.82Q513.78-19.82 514.03-19.9 514.27-19.97 514.37-20.21L514.37-20.21Q515.1-20.31 515.83-20.29 516.57-20.26 517.3-20.26L517.3-20.26Q518.03-20.26 518.74-20.31 519.45-20.36 520.13-20.56L520.13-20.56Q520.91-20.75 521.67-20.8 522.43-20.85 523.16-20.9 523.89-20.95 524.67-21.07 525.45-21.19 526.28-21.58L526.28-21.58Q526.92-21.34 527.58-21.34 528.24-21.34 528.87-21.24L528.87-21.24Q529.21-21 529.43-20.7 529.65-20.41 529.65-20.02L529.65-20.02Q529.65-19.34 529.16-18.65 528.68-17.97 528.38-17.38L528.38-17.38 527.85-17.38Q526.67-17.38 525.58-17.07 524.48-16.75 523.38-16.33 522.28-15.92 521.18-15.6 520.08-15.28 518.91-15.28L518.91-15.28Q518.72-15.28 518.69-15.06 518.67-14.84 518.57-14.75L518.57-14.75Q518.32-14.79 517.84-14.79L517.84-14.79Q516.71-14.79 515.69-14.55 514.66-14.31 513.59-14.31L513.59-14.31Q513.3-14.31 513-14.33 512.71-14.36 512.42-14.4L512.42-14.4Q512.17-14.01 511.78-13.89 511.39-13.77 511.05-13.48L511.05-13.48Q510.9-13.04 510.88-12.4 510.85-11.77 510.83-11.11 510.8-10.45 510.71-9.86 510.61-9.28 510.32-8.94L510.32-8.94Q510.37-8.69 510.71-8.76 511.05-8.84 511.05-8.45L511.05-8.45Q511.05-8.01 510.95-7.52 510.85-7.03 510.85-6.54L510.85-6.54Q510.85-5.62 511.07-4.52 511.29-3.42 511.76-2.49 512.22-1.56 513-0.95 513.78-0.34 514.96-0.34L514.96-0.34Q515.74-0.34 516.42-0.63 517.1-0.93 517.54-1.61L517.54-1.61 517.79-1.66Q517.98-1.66 518.15-1.61 518.32-1.56 518.52-1.56L518.52-1.56Q518.81-1.56 519.28-1.93 519.74-2.29 520.3-2.78 520.86-3.27 521.45-3.74 522.04-4.2 522.57-4.39L522.57-4.39Q522.91-5.08 523.23-5.76 523.55-6.45 524.18-6.84L524.18-6.84 524.18-8.25Q524.67-8.79 525.23-9.23 525.8-9.67 526.09-10.35L526.09-10.35Q526.33-10.25 526.55-10.21 526.77-10.16 527.02-10.16L527.02-10.16Q527.26-10.16 527.53-10.21 527.8-10.25 528.04-10.35L528.04-10.35Q528.43-9.81 528.65-9.16 528.87-8.5 529.21-7.91L529.21-7.91Q528.77-7.03 528.19-5.81 527.6-4.59 526.92-3.37 526.23-2.15 525.48-1.05 524.72 0.05 523.99 0.63L523.99 0.63Q523.84 0.78 523.35 0.98L523.35 0.98Q522.82 1.37 522.38 1.73 521.94 2.1 521.55 2.59L521.55 2.59Q520.13 3.03 518.84 3.76 517.54 4.49 516.27 5.18L516.27 5.18Q515.69 5.03 515 5.03L515 5.03Q514.42 5.03 513.83 5.1 513.25 5.18 512.56 5.18L512.56 5.18Q512.37 4.93 512 4.86 511.63 4.79 511.73 4.35L511.73 4.35Q510.07 4.25 509.05 3.44 508.02 2.64 507.31 1.46 506.61 0.29 506.17-1.07 505.73-2.44 505.24-3.71L505.24-3.71 505.24-3.86Q505.24-4.1 505.43-4.15 505.63-4.2 505.63-4.44L505.63-4.44Q505.63-4.54 505.58-4.59L505.58-4.59Q505.43-5.13 505.34-5.52 505.24-5.91 505.24-6.45L505.24-6.45Q505.24-7.23 505.34-7.98 505.43-8.74 505.43-9.52L505.43-9.52Q505.43-10.3 505.24-10.89L505.24-10.89Q505.43-11.13 505.56-11.55 505.68-11.96 505.73-12.4 505.78-12.84 505.8-13.28 505.82-13.72 505.92-14.06L505.92-14.06Q505.73-14.6 505.58-15.01 505.43-15.43 505.43-16.02L505.43-16.02 505.43-16.36Q505.92-17.19 506.26-18.07 506.61-18.95 507-19.87L507-19.87 507-20.02Q507-21.44 506.9-22.85 506.8-24.27 506.8-25.68L506.8-25.68 506.8-26.61Q506.8-27.1 506.85-27.54L506.85-27.54Q507.24-27.73 507.44-28.08 507.63-28.42 508.02-28.61L508.02-28.61 509.63-28.61 509.93-29.1Q510.07-29.35 510.12-29.64L510.12-29.64Q510.66-29.79 511.17-30.05 511.68-30.32 512.12-30.62L512.12-30.62Q512.81-31.01 513.37-31.32 513.93-31.64 514.49-31.86 515.05-32.08 515.69-32.23 516.32-32.37 517.15-32.47L517.15-32.47Q517.54-32.47 517.67-32.62 517.79-32.76 518.03-32.96L518.03-32.96Q518.62-32.86 519.2-32.79 519.79-32.71 520.38-32.71L520.38-32.71Q521.55-32.71 522.57-33.15L522.57-33.15Q524.04-33.15 525.48-33.2 526.92-33.25 528.38-33.25L528.38-33.25Q529.65-33.25 530.92-33.15 532.19-33.06 533.41-32.81L533.41-32.81Q533.85-32.96 534.39-32.96L534.39-32.96Q534.97-32.96 535.59-32.84 536.2-32.71 536.78-32.81L536.78-32.81Q536.83-32.28 537.05-31.91 537.27-31.54 537.27-31.05ZM565.83-31.05L565.83-31.05 565.83-30.86Q565.49-30.76 565.49-30.37L565.49-30.37Q564.95-30.13 564.37-30 563.78-29.88 563.24-29.64L563.24-29.64Q562.71-29.69 562.15-29.71 561.58-29.74 561.05-29.74L561.05-29.74Q559.58-29.74 558.12-29.64 556.65-29.54 555.19-29.64L555.19-29.64Q554.5-29.25 553.7-29.03 552.89-28.81 552.16-28.81L552.16-28.81Q551.57-28.81 551.13-28.96L551.13-28.96Q549.96-28.37 548.57-27.98 547.18-27.59 545.76-27.22 544.35-26.86 543.05-26.39 541.76-25.93 540.78-25.1L540.78-25.1Q540.69-24.41 540.64-23.75 540.59-23.1 540.59-22.46L540.59-22.46Q540.59-21.78 540.66-21.19 540.73-20.61 540.98-20.02L540.98-20.02Q541.22-19.92 541.54-19.87 541.86-19.82 542.1-19.82L542.1-19.82Q542.35-19.82 542.59-19.9 542.83-19.97 542.93-20.21L542.93-20.21Q543.66-20.31 544.4-20.29 545.13-20.26 545.86-20.26L545.86-20.26Q546.59-20.26 547.3-20.31 548.01-20.36 548.69-20.56L548.69-20.56Q549.47-20.75 550.23-20.8 550.99-20.85 551.72-20.9 552.45-20.95 553.23-21.07 554.02-21.19 554.85-21.58L554.85-21.58Q555.48-21.34 556.14-21.34 556.8-21.34 557.43-21.24L557.43-21.24Q557.77-21 557.99-20.7 558.21-20.41 558.21-20.02L558.21-20.02Q558.21-19.34 557.73-18.65 557.24-17.97 556.94-17.38L556.94-17.38 556.41-17.38Q555.24-17.38 554.14-17.07 553.04-16.75 551.94-16.33 550.84-15.92 549.74-15.6 548.64-15.28 547.47-15.28L547.47-15.28Q547.28-15.28 547.25-15.06 547.23-14.84 547.13-14.75L547.13-14.75Q546.89-14.79 546.4-14.79L546.4-14.79Q545.27-14.79 544.25-14.55 543.22-14.31 542.15-14.31L542.15-14.31Q541.86-14.31 541.56-14.33 541.27-14.36 540.98-14.4L540.98-14.4Q540.73-14.01 540.34-13.89 539.95-13.77 539.61-13.48L539.61-13.48Q539.46-13.04 539.44-12.4 539.42-11.77 539.39-11.11 539.37-10.45 539.27-9.86 539.17-9.28 538.88-8.94L538.88-8.94Q538.93-8.69 539.27-8.76 539.61-8.84 539.61-8.45L539.61-8.45Q539.61-8.01 539.51-7.52 539.42-7.03 539.42-6.54L539.42-6.54Q539.42-5.62 539.64-4.52 539.86-3.42 540.32-2.49 540.78-1.56 541.56-0.95 542.35-0.34 543.52-0.34L543.52-0.34Q544.3-0.34 544.98-0.63 545.67-0.93 546.11-1.61L546.11-1.61 546.35-1.66Q546.54-1.66 546.72-1.61 546.89-1.56 547.08-1.56L547.08-1.56Q547.37-1.56 547.84-1.93 548.3-2.29 548.86-2.78 549.43-3.27 550.01-3.74 550.6-4.2 551.13-4.39L551.13-4.39Q551.48-5.08 551.79-5.76 552.11-6.45 552.75-6.84L552.75-6.84 552.75-8.25Q553.23-8.79 553.8-9.23 554.36-9.67 554.65-10.35L554.65-10.35Q554.89-10.25 555.11-10.21 555.33-10.16 555.58-10.16L555.58-10.16Q555.82-10.16 556.09-10.21 556.36-10.25 556.6-10.35L556.6-10.35Q556.99-9.81 557.21-9.16 557.43-8.5 557.77-7.91L557.77-7.91Q557.34-7.03 556.75-5.81 556.16-4.59 555.48-3.37 554.8-2.15 554.04-1.05 553.28 0.05 552.55 0.63L552.55 0.63Q552.4 0.78 551.92 0.98L551.92 0.98Q551.38 1.37 550.94 1.73 550.5 2.1 550.11 2.59L550.11 2.59Q548.69 3.03 547.4 3.76 546.11 4.49 544.84 5.18L544.84 5.18Q544.25 5.03 543.57 5.03L543.57 5.03Q542.98 5.03 542.39 5.1 541.81 5.18 541.12 5.18L541.12 5.18Q540.93 4.93 540.56 4.86 540.2 4.79 540.29 4.35L540.29 4.35Q538.63 4.25 537.61 3.44 536.58 2.64 535.88 1.46 535.17 0.29 534.73-1.07 534.29-2.44 533.8-3.71L533.8-3.71 533.8-3.86Q533.8-4.1 534-4.15 534.19-4.2 534.19-4.44L534.19-4.44Q534.19-4.54 534.14-4.59L534.14-4.59Q534-5.13 533.9-5.52 533.8-5.91 533.8-6.45L533.8-6.45Q533.8-7.23 533.9-7.98 534-8.74 534-9.52L534-9.52Q534-10.3 533.8-10.89L533.8-10.89Q534-11.13 534.12-11.55 534.24-11.96 534.29-12.4 534.34-12.84 534.36-13.28 534.39-13.72 534.48-14.06L534.48-14.06Q534.29-14.6 534.14-15.01 534-15.43 534-16.02L534-16.02 534-16.36Q534.48-17.19 534.83-18.07 535.17-18.95 535.56-19.87L535.56-19.87 535.56-20.02Q535.56-21.44 535.46-22.85 535.36-24.27 535.36-25.68L535.36-25.68 535.36-26.61Q535.36-27.1 535.41-27.54L535.41-27.54Q535.8-27.73 536-28.08 536.19-28.42 536.58-28.61L536.58-28.61 538.19-28.61 538.49-29.1Q538.63-29.35 538.68-29.64L538.68-29.64Q539.22-29.79 539.73-30.05 540.25-30.32 540.69-30.62L540.69-30.62Q541.37-31.01 541.93-31.32 542.49-31.64 543.05-31.86 543.61-32.08 544.25-32.23 544.88-32.37 545.71-32.47L545.71-32.47Q546.11-32.47 546.23-32.62 546.35-32.76 546.59-32.96L546.59-32.96Q547.18-32.86 547.77-32.79 548.35-32.71 548.94-32.71L548.94-32.71Q550.11-32.71 551.13-33.15L551.13-33.15Q552.6-33.15 554.04-33.2 555.48-33.25 556.94-33.25L556.94-33.25Q558.21-33.25 559.48-33.15 560.75-33.06 561.97-32.81L561.97-32.81Q562.41-32.96 562.95-32.96L562.95-32.96Q563.54-32.96 564.15-32.84 564.76-32.71 565.34-32.81L565.34-32.81Q565.39-32.28 565.61-31.91 565.83-31.54 565.83-31.05ZM625.94-8.5L625.94-8.5Q625.84-7.76 625.42-7.37 625.01-6.98 624.47-6.64L624.47-6.64Q624.23-6.69 624.01-6.71 623.79-6.74 623.54-6.74L623.54-6.74Q622.03-6.79 620.69-6.35 619.34-5.91 617.93-5.71L617.93-5.71Q617.44-5.62 617.03-5.64 616.61-5.66 616.17-5.57L616.17-5.57Q614.61-5.32 612.85-5.18 611.09-5.03 609.33-4.81 607.58-4.59 605.89-4.27 604.21-3.96 602.74-3.37L602.74-3.37Q602.6-3.47 602.45-3.59 602.3-3.71 602.11-3.71L602.11-3.71Q601.62-3.71 601.18-3.56 600.74-3.42 600.3-3.47L600.3-3.47Q599.81-3.17 599.25-3.05 598.69-2.93 598.13-2.86 597.57-2.78 597.03-2.64 596.49-2.49 596-2.1L596-2.1Q595.61-2.29 595.05-2.32 594.49-2.34 594.3-2.69L594.3-2.69Q593.17-2.15 591.93-2 590.68-1.86 589.41-1.9L589.41-1.9Q588.58-1.95 587.51-2.15 586.43-2.34 585.36-2.71 584.29-3.08 583.36-3.59 582.43-4.1 581.94-4.83L581.94-4.83Q581.6-5.32 581.45-5.91 581.31-6.49 580.77-6.79L580.77-6.79Q580.92-7.91 581.11-8.98 581.31-10.06 581.5-11.18L581.5-11.18Q582.48-12.01 583.36-12.94 584.24-13.87 585.02-14.89L585.02-14.89Q585.95-15.33 586.75-15.97 587.56-16.6 588.36-17.26 589.17-17.92 589.97-18.55 590.78-19.19 591.71-19.68L591.71-19.68Q591.85-20.02 592.12-20.24 592.39-20.46 592.68-20.68 592.98-20.9 593.22-21.17 593.47-21.44 593.56-21.83L593.56-21.83Q595.27-22.85 596.54-24.41 597.81-25.98 598.2-27.93L598.2-27.93Q597.37-28.61 596.32-28.83 595.27-29.05 594.15-29.15L594.15-29.15Q593.17-29.2 592.12-29.15 591.07-29.1 590-29.2L590-29.2Q588.92-28.86 587.78-28.76 586.63-28.66 585.51-28.59 584.38-28.52 583.29-28.3 582.19-28.08 581.16-27.49L581.16-27.49Q580.97-27.49 580.79-27.54 580.62-27.59 580.43-27.59L580.43-27.59Q578.87-27.64 577.5-26.98 576.13-26.32 574.81-25.68L574.81-25.68Q574.72-25.49 574.72-25.39L574.72-25.39Q574.72-25.1 574.84-24.83 574.96-24.56 574.96-24.27L574.96-24.27Q574.91-24.22 574.91-24.17 574.91-24.12 574.86-24.07L574.86-24.07Q574.81-23.83 574.74-23.63 574.67-23.44 574.57-23.19L574.57-23.19Q574.03-21.63 573.98-20.12L573.98-20.12Q573.93-18.85 573.98-17.63 574.03-16.41 573.98-15.14L573.98-15.14Q573.89-13.57 573.5-12.21L573.5-12.21Q573.74-11.04 573.93-9.74 574.13-8.45 574.42-7.18 574.72-5.91 575.13-4.71 575.55-3.52 576.23-2.44L576.23-2.44Q576.18-2.34 576.28-2.29 576.38-2.25 576.47-2.25L576.47-2.25 576.86-2.25Q577.11-2.25 577.06-2.05L577.06-2.05Q577.16-1.9 577.21-1.78 577.25-1.66 577.4-1.56L577.4-1.56Q577.5-1.42 577.4-1.17L577.4-1.17Q577.35-0.2 576.91 0.63 576.47 1.46 576.38 2.44L576.38 2.44Q575.79 2.59 575.3 2.59L575.3 2.59Q574.47 2.54 573.84 2.12 573.2 1.71 572.67 1.12 572.13 0.54 571.64-0.07 571.15-0.68 570.57-1.12L570.57-1.12Q570.22-2.49 569.91-4.15 569.59-5.81 568.86-6.98L568.86-6.98Q569.05-7.42 569.05-8.06L569.05-8.06Q569.1-9.03 568.88-9.99 568.66-10.94 568.76-11.91L568.76-11.91Q568.76-12.45 568.88-12.99 569-13.53 569.05-14.06L569.05-14.06Q569.1-14.89 568.88-15.67 568.66-16.46 568.71-17.29L568.71-17.29Q568.76-17.68 568.88-18.04 569-18.41 569.25-18.7L569.25-18.7Q569-19.29 569.1-19.82L569.1-19.82Q569.15-20.65 569.3-21.39 569.44-22.12 569.49-22.85L569.49-22.85Q569.49-23.24 569.44-23.61 569.39-23.97 569.3-24.32L569.3-24.32 568.86-24.46Q568.56-24.46 568.29-24.32 568.03-24.17 567.83-23.97 567.64-23.78 567.49-23.66 567.34-23.54 567.2-23.54L567.2-23.54Q567.1-23.54 566.98-23.56 566.85-23.58 566.76-23.58L566.76-23.58Q566.66-23.58 566.39-23.39 566.12-23.19 565.76-22.97 565.39-22.75 565.05-22.53 564.71-22.31 564.51-22.27L564.51-22.27Q563.97-22.36 563.66-22.63 563.34-22.9 563.07-23.17 562.8-23.44 562.51-23.66 562.22-23.88 561.78-23.83L561.78-23.83Q561.63-24.12 561.61-24.46 561.58-24.8 561.63-25.15L561.63-25.15 561.63-25.93Q561.97-26.56 562.53-26.98 563.09-27.39 563.73-27.69L563.73-27.69 565-28.27Q565.63-28.56 566.17-29L566.17-29 566.61-29Q567.49-28.96 568.15-29.35 568.81-29.74 569.39-30.25 569.98-30.76 570.59-31.3 571.2-31.84 571.93-32.13L571.93-32.13Q572.47-31.88 573.06-31.71 573.64-31.54 574.28-31.49L574.28-31.49Q574.91-31.49 575.59-31.69 576.28-31.88 576.67-32.42L576.67-32.42Q576.91-32.32 577.08-32.3 577.25-32.28 577.5-32.28L577.5-32.28Q578.23-32.23 578.96-32.5 579.7-32.76 580.38-33.15L580.38-33.15Q581.36-33.11 582.31-33.28 583.26-33.45 584.21-33.64 585.17-33.84 586.12-34.01 587.07-34.18 588.05-34.13L588.05-34.13Q589.66-34.08 591.22-34.42 592.78-34.77 594.39-34.67L594.39-34.67Q595.52-34.62 596.62-34.5 597.71-34.38 598.84-34.42L598.84-34.42Q599.47-34.13 599.98-33.91 600.5-33.69 601.28-33.79L601.28-33.79Q602.84-32.47 604.11-30.71L604.11-30.71 604.11-29.88Q604.06-28.76 603.72-27.69 603.38-26.61 602.91-25.56 602.45-24.51 601.91-23.51 601.38-22.51 600.89-21.53L600.89-21.53Q597.71-18.65 594.54-15.82 591.37-12.99 588-10.35L588-10.35Q587.9-9.86 587.73-9.47 587.56-9.08 587.51-8.64L587.51-8.64Q587.51-8.4 587.56-8.25L587.56-8.25Q587.9-8.15 588.17-7.89 588.44-7.62 588.34-7.18L588.34-7.18 588.78-7.18Q589.02-7.18 589.02-6.98L589.02-6.98 589.8-6.93Q591.66-6.84 593.51-7.03 595.37-7.23 597.25-7.47 599.13-7.71 600.99-7.93 602.84-8.15 604.7-8.2L604.7-8.2Q605.14-8.35 605.62-8.45 606.11-8.54 606.5-8.84L606.5-8.84 606.65-8.84Q606.99-8.84 607.16-8.64 607.33-8.45 607.67-8.4L607.67-8.4Q607.92-8.4 608.19-8.5 608.46-8.59 608.75-8.64L608.75-8.64Q609.43-8.84 610.19-8.89 610.95-8.94 611.68-9.03L611.68-9.03Q614.51-9.28 617.29-9.35 620.08-9.42 622.86-10.06L622.86-10.06Q623.1-9.72 623.54-9.59 623.98-9.47 624.47-9.35 624.96-9.23 625.38-9.08 625.79-8.94 625.94-8.5Z" opacity="1" transform="matrix(1,0,0,1,0,0)" fill="#ffffff" class="undefined-text-1" data-fill-palette-color="secondary" id="text-1"></path></svg></g></svg></g></svg></g></svg></g></svg></g></svg></g><defs></defs></svg><rect width="395.52" height="127.72946465510829" fill="none" stroke="none" visibility="hidden"></rect></g></svg></g></svg>